<?xml version="1.0" encoding="UTF-8"?>
<svg xmlns="http://www.w3.org/2000/svg" xmlns:xlink="http://www.w3.org/1999/xlink" width="62pt" height="55pt" viewBox="0 0 62 55" version="1.1">
<g id="surface1">
<path style=" stroke:none;fill-rule:nonzero;fill:rgb(0%,0%,0%);fill-opacity:0.8;" d="M 19.09375 52.320313 C 19.09375 51.152344 18.148438 50.207031 16.980469 50.207031 C 15.8125 50.207031 14.867188 51.152344 14.867188 52.320313 C 14.867188 53.488281 15.8125 54.433594 16.980469 54.433594 C 18.148438 54.433594 19.09375 53.488281 19.09375 52.320313 Z M 19.09375 52.320313 "/>
<path style=" stroke:none;fill-rule:nonzero;fill:rgb(0%,0%,0%);fill-opacity:0.8;" d="M 47.441406 52.320313 C 47.441406 51.152344 46.496094 50.207031 45.328125 50.207031 C 44.160156 50.207031 43.214844 51.152344 43.214844 52.320313 C 43.214844 53.488281 44.160156 54.433594 45.328125 54.433594 C 46.496094 54.433594 47.441406 53.488281 47.441406 52.320313 Z M 47.441406 52.320313 "/>
<path style=" stroke:none;fill-rule:nonzero;fill:rgb(0%,0%,0%);fill-opacity:0.8;" d="M 61.617188 23.972656 C 61.617188 22.804688 60.667969 21.859375 59.5 21.859375 C 58.335938 21.859375 57.386719 22.804688 57.386719 23.972656 C 57.386719 25.140625 58.335938 26.085938 59.5 26.085938 C 60.667969 26.085938 61.617188 25.140625 61.617188 23.972656 Z M 61.617188 23.972656 "/>
<path style=" stroke:none;fill-rule:nonzero;fill:rgb(0%,0%,0%);fill-opacity:0.8;" d="M 33.269531 2.714844 C 33.269531 1.546875 32.320313 0.601563 31.15625 0.601563 C 29.988281 0.601563 29.042969 1.546875 29.042969 2.714844 C 29.042969 3.878906 29.988281 4.828125 31.15625 4.828125 C 32.320313 4.828125 33.269531 3.878906 33.269531 2.714844 Z M 33.269531 2.714844 "/>
<path style=" stroke:none;fill-rule:nonzero;fill:rgb(0%,0%,0%);fill-opacity:0.8;" d="M 4.921875 23.972656 C 4.921875 22.804688 3.976563 21.859375 2.808594 21.859375 C 1.640625 21.859375 0.695313 22.804688 0.695313 23.972656 C 0.695313 25.140625 1.640625 26.085938 2.808594 26.085938 C 3.976563 26.085938 4.921875 25.140625 4.921875 23.972656 Z M 4.921875 23.972656 "/>
<path style="fill:none;stroke-width:0.79701;stroke-linecap:butt;stroke-linejoin:miter;stroke:rgb(0%,0%,0%);stroke-opacity:1;stroke-miterlimit:10;" d="M -11.862031 -0.0003125 L 11.860625 -0.0003125 M 15.208281 2.07 L 27.31375 26.277031 M 26.497344 29.734063 L 1.848906 48.218438 M -1.850312 48.218438 L -26.494844 29.734063 M -27.31125 26.277031 L -15.205781 2.07 " transform="matrix(1,0,0,-1,31.155,52.32)"/>
</g>
</svg>
