<?xml version="1.0" encoding="UTF-8"?>
<svg xmlns="http://www.w3.org/2000/svg" xmlns:xlink="http://www.w3.org/1999/xlink" width="52pt" height="51pt" viewBox="0 0 52 51" version="1.1">
<g id="surface1">
<path style="fill-rule:nonzero;fill:rgb(0%,0%,0%);fill-opacity:1;stroke-width:0.3985;stroke-linecap:butt;stroke-linejoin:miter;stroke:rgb(0%,0%,0%);stroke-opacity:1;stroke-miterlimit:10;" d="M 1.442625 -0.00165625 C 1.442625 0.795219 0.798094 1.443656 0.00121875 1.443656 C -0.795656 1.443656 -1.444094 0.795219 -1.444094 -0.00165625 C -1.444094 -0.798531 -0.795656 -1.443062 0.00121875 -1.443062 C 0.798094 -1.443062 1.442625 -0.798531 1.442625 -0.00165625 Z M 1.442625 -0.00165625 " transform="matrix(1,0,0,-1,3.573,47.596)"/>
<path style="fill-rule:nonzero;fill:rgb(0%,0%,100%);fill-opacity:1;stroke-width:0.3985;stroke-linecap:butt;stroke-linejoin:miter;stroke:rgb(0%,0%,0%);stroke-opacity:1;stroke-miterlimit:10;" d="M 2.680906 22.678031 C 2.680906 24.1585 1.481687 25.357719 0.00121875 25.357719 C -1.47925 25.357719 -2.678469 24.1585 -2.678469 22.678031 C -2.678469 21.197563 -1.47925 19.998344 0.00121875 19.998344 C 1.481687 19.998344 2.680906 21.197563 2.680906 22.678031 Z M 2.680906 22.678031 " transform="matrix(1,0,0,-1,3.573,47.596)"/>
<path style="fill-rule:nonzero;fill:rgb(0%,0%,0%);fill-opacity:1;stroke-width:0.3985;stroke-linecap:butt;stroke-linejoin:miter;stroke:rgb(0%,0%,0%);stroke-opacity:1;stroke-miterlimit:10;" d="M 1.442625 45.353813 C 1.442625 46.150688 0.798094 46.795219 0.00121875 46.795219 C -0.795656 46.795219 -1.444094 46.150688 -1.444094 45.353813 C -1.444094 44.556938 -0.795656 43.912406 0.00121875 43.912406 C 0.798094 43.912406 1.442625 44.556938 1.442625 45.353813 Z M 1.442625 45.353813 " transform="matrix(1,0,0,-1,3.573,47.596)"/>
<path style="fill-rule:nonzero;fill:rgb(0%,0%,100%);fill-opacity:1;stroke-width:0.3985;stroke-linecap:butt;stroke-linejoin:miter;stroke:rgb(0%,0%,0%);stroke-opacity:1;stroke-miterlimit:10;" d="M 25.356688 -0.00165625 C 25.356688 1.478813 24.157469 2.678031 22.677 2.678031 C 21.196531 2.678031 19.997313 1.478813 19.997313 -0.00165625 C 19.997313 -1.478219 21.196531 -2.677437 22.677 -2.677437 C 24.157469 -2.677437 25.356688 -1.478219 25.356688 -0.00165625 Z M 25.356688 -0.00165625 " transform="matrix(1,0,0,-1,3.573,47.596)"/>
<path style="fill-rule:nonzero;fill:rgb(0%,0%,0%);fill-opacity:1;stroke-width:0.3985;stroke-linecap:butt;stroke-linejoin:miter;stroke:rgb(0%,0%,0%);stroke-opacity:1;stroke-miterlimit:10;" d="M 24.118406 22.678031 C 24.118406 23.474906 23.473875 24.119438 22.677 24.119438 C 21.880125 24.119438 21.235594 23.474906 21.235594 22.678031 C 21.235594 21.881156 21.880125 21.232719 22.677 21.232719 C 23.473875 21.232719 24.118406 21.881156 24.118406 22.678031 Z M 24.118406 22.678031 " transform="matrix(1,0,0,-1,3.573,47.596)"/>
<path style="fill-rule:nonzero;fill:rgb(0%,0%,0%);fill-opacity:1;stroke-width:0.3985;stroke-linecap:butt;stroke-linejoin:miter;stroke:rgb(0%,0%,0%);stroke-opacity:1;stroke-miterlimit:10;" d="M 24.118406 45.353813 C 24.118406 46.150688 23.473875 46.795219 22.677 46.795219 C 21.880125 46.795219 21.235594 46.150688 21.235594 45.353813 C 21.235594 44.556938 21.880125 43.912406 22.677 43.912406 C 23.473875 43.912406 24.118406 44.556938 24.118406 45.353813 Z M 24.118406 45.353813 " transform="matrix(1,0,0,-1,3.573,47.596)"/>
<path style="fill-rule:nonzero;fill:rgb(0%,0%,100%);fill-opacity:1;stroke-width:0.3985;stroke-linecap:butt;stroke-linejoin:miter;stroke:rgb(0%,0%,0%);stroke-opacity:1;stroke-miterlimit:10;" d="M 48.032469 -0.00165625 C 48.032469 1.478813 46.83325 2.678031 45.352781 2.678031 C 43.876219 2.678031 42.673094 1.478813 42.673094 -0.00165625 C 42.673094 -1.478219 43.876219 -2.677437 45.352781 -2.677437 C 46.83325 -2.677437 48.032469 -1.478219 48.032469 -0.00165625 Z M 48.032469 -0.00165625 " transform="matrix(1,0,0,-1,3.573,47.596)"/>
<path style="fill-rule:nonzero;fill:rgb(0%,0%,100%);fill-opacity:1;stroke-width:0.3985;stroke-linecap:butt;stroke-linejoin:miter;stroke:rgb(0%,0%,0%);stroke-opacity:1;stroke-miterlimit:10;" d="M 48.032469 22.678031 C 48.032469 24.1585 46.83325 25.357719 45.352781 25.357719 C 43.876219 25.357719 42.673094 24.1585 42.673094 22.678031 C 42.673094 21.197563 43.876219 19.998344 45.352781 19.998344 C 46.83325 19.998344 48.032469 21.197563 48.032469 22.678031 Z M 48.032469 22.678031 " transform="matrix(1,0,0,-1,3.573,47.596)"/>
<path style="fill-rule:nonzero;fill:rgb(0%,0%,0%);fill-opacity:1;stroke-width:0.3985;stroke-linecap:butt;stroke-linejoin:miter;stroke:rgb(0%,0%,0%);stroke-opacity:1;stroke-miterlimit:10;" d="M 46.798094 45.353813 C 46.798094 46.150688 46.149656 46.795219 45.352781 46.795219 C 44.555906 46.795219 43.911375 46.150688 43.911375 45.353813 C 43.911375 44.556938 44.555906 43.912406 45.352781 43.912406 C 46.149656 43.912406 46.798094 44.556938 46.798094 45.353813 Z M 46.798094 45.353813 " transform="matrix(1,0,0,-1,3.573,47.596)"/>
</g>
</svg>
