<?xml version="1.0" encoding="UTF-8"?>
<svg xmlns="http://www.w3.org/2000/svg" xmlns:xlink="http://www.w3.org/1999/xlink" width="60pt" height="60pt" viewBox="0 0 60 60" version="1.1">
<g id="surface1">
<path style="fill:none;stroke-width:0.79701;stroke-linecap:butt;stroke-linejoin:miter;stroke:rgb(0%,0%,0%);stroke-opacity:1;stroke-dasharray:2.98883,2.98883;stroke-miterlimit:10;" d="M 34.014563 -11.337594 L 56.69425 -11.337594 L 56.69425 11.338188 L 34.014563 11.338188 L 34.014563 -11.337594 " transform="matrix(1,0,0,-1,2.337,47.596)"/>
<path style="fill-rule:nonzero;fill:rgb(0%,0%,0%);fill-opacity:1;stroke-width:0.3985;stroke-linecap:butt;stroke-linejoin:miter;stroke:rgb(0%,0%,0%);stroke-opacity:1;stroke-miterlimit:10;" d="M 1.44425 -0.00165625 C 1.44425 0.795219 0.795813 1.443656 -0.0010625 1.443656 C -0.797937 1.443656 -1.442469 0.795219 -1.442469 -0.00165625 C -1.442469 -0.798531 -0.797937 -1.443062 -0.0010625 -1.443062 C 0.795813 -1.443062 1.44425 -0.798531 1.44425 -0.00165625 Z M 1.44425 -0.00165625 " transform="matrix(1,0,0,-1,2.337,47.596)"/>
<path style="fill-rule:nonzero;fill:rgb(0%,0%,0%);fill-opacity:1;stroke-width:0.3985;stroke-linecap:butt;stroke-linejoin:miter;stroke:rgb(0%,0%,0%);stroke-opacity:1;stroke-miterlimit:10;" d="M 1.44425 22.678031 C 1.44425 23.474906 0.795813 24.119438 -0.0010625 24.119438 C -0.797937 24.119438 -1.442469 23.474906 -1.442469 22.678031 C -1.442469 21.881156 -0.797937 21.232719 -0.0010625 21.232719 C 0.795813 21.232719 1.44425 21.881156 1.44425 22.678031 Z M 1.44425 22.678031 " transform="matrix(1,0,0,-1,2.337,47.596)"/>
<path style="fill-rule:nonzero;fill:rgb(0%,0%,0%);fill-opacity:1;stroke-width:0.3985;stroke-linecap:butt;stroke-linejoin:miter;stroke:rgb(0%,0%,0%);stroke-opacity:1;stroke-miterlimit:10;" d="M 1.44425 45.353813 C 1.44425 46.150688 0.795813 46.795219 -0.0010625 46.795219 C -0.797937 46.795219 -1.442469 46.150688 -1.442469 45.353813 C -1.442469 44.556938 -0.797937 43.912406 -0.0010625 43.912406 C 0.795813 43.912406 1.44425 44.556938 1.44425 45.353813 Z M 1.44425 45.353813 " transform="matrix(1,0,0,-1,2.337,47.596)"/>
<path style="fill-rule:nonzero;fill:rgb(0%,0%,0%);fill-opacity:1;stroke-width:0.3985;stroke-linecap:butt;stroke-linejoin:miter;stroke:rgb(0%,0%,0%);stroke-opacity:1;stroke-miterlimit:10;" d="M 24.120031 -0.00165625 C 24.120031 0.795219 23.4755 1.443656 22.678625 1.443656 C 21.88175 1.443656 21.233313 0.795219 21.233313 -0.00165625 C 21.233313 -0.798531 21.88175 -1.443062 22.678625 -1.443062 C 23.4755 -1.443062 24.120031 -0.798531 24.120031 -0.00165625 Z M 24.120031 -0.00165625 " transform="matrix(1,0,0,-1,2.337,47.596)"/>
<path style="fill-rule:nonzero;fill:rgb(0%,0%,0%);fill-opacity:1;stroke-width:0.3985;stroke-linecap:butt;stroke-linejoin:miter;stroke:rgb(0%,0%,0%);stroke-opacity:1;stroke-miterlimit:10;" d="M 24.120031 22.678031 C 24.120031 23.474906 23.4755 24.119438 22.678625 24.119438 C 21.88175 24.119438 21.233313 23.474906 21.233313 22.678031 C 21.233313 21.881156 21.88175 21.232719 22.678625 21.232719 C 23.4755 21.232719 24.120031 21.881156 24.120031 22.678031 Z M 24.120031 22.678031 " transform="matrix(1,0,0,-1,2.337,47.596)"/>
<path style="fill-rule:nonzero;fill:rgb(0%,0%,0%);fill-opacity:1;stroke-width:0.3985;stroke-linecap:butt;stroke-linejoin:miter;stroke:rgb(0%,0%,0%);stroke-opacity:1;stroke-miterlimit:10;" d="M 24.120031 45.353813 C 24.120031 46.150688 23.4755 46.795219 22.678625 46.795219 C 21.88175 46.795219 21.233313 46.150688 21.233313 45.353813 C 21.233313 44.556938 21.88175 43.912406 22.678625 43.912406 C 23.4755 43.912406 24.120031 44.556938 24.120031 45.353813 Z M 24.120031 45.353813 " transform="matrix(1,0,0,-1,2.337,47.596)"/>
<path style="fill-rule:nonzero;fill:rgb(100%,0%,0%);fill-opacity:1;stroke-width:0.3985;stroke-linecap:butt;stroke-linejoin:miter;stroke:rgb(0%,0%,0%);stroke-opacity:1;stroke-miterlimit:10;" d="M 49.4755 -0.00165625 C 49.4755 2.275688 47.63175 4.123344 45.354406 4.123344 C 43.077063 4.123344 41.233313 2.275688 41.233313 -0.00165625 C 41.233313 -2.275094 43.077063 -4.12275 45.354406 -4.12275 C 47.63175 -4.12275 49.4755 -2.275094 49.4755 -0.00165625 Z M 49.4755 -0.00165625 " transform="matrix(1,0,0,-1,2.337,47.596)"/>
<path style="fill-rule:nonzero;fill:rgb(0%,0%,0%);fill-opacity:1;stroke-width:0.3985;stroke-linecap:butt;stroke-linejoin:miter;stroke:rgb(0%,0%,0%);stroke-opacity:1;stroke-miterlimit:10;" d="M 46.795813 22.678031 C 46.795813 23.474906 46.151281 24.119438 45.354406 24.119438 C 44.557531 24.119438 43.913 23.474906 43.913 22.678031 C 43.913 21.881156 44.557531 21.232719 45.354406 21.232719 C 46.151281 21.232719 46.795813 21.881156 46.795813 22.678031 Z M 46.795813 22.678031 " transform="matrix(1,0,0,-1,2.337,47.596)"/>
<path style="fill-rule:nonzero;fill:rgb(0%,0%,0%);fill-opacity:1;stroke-width:0.3985;stroke-linecap:butt;stroke-linejoin:miter;stroke:rgb(0%,0%,0%);stroke-opacity:1;stroke-miterlimit:10;" d="M 46.795813 45.353813 C 46.795813 46.150688 46.151281 46.795219 45.354406 46.795219 C 44.557531 46.795219 43.913 46.150688 43.913 45.353813 C 43.913 44.556938 44.557531 43.912406 45.354406 43.912406 C 46.151281 43.912406 46.795813 44.556938 46.795813 45.353813 Z M 46.795813 45.353813 " transform="matrix(1,0,0,-1,2.337,47.596)"/>
</g>
</svg>
