<?xml version="1.0" encoding="UTF-8"?>
<svg xmlns="http://www.w3.org/2000/svg" xmlns:xlink="http://www.w3.org/1999/xlink" width="62pt" height="48pt" viewBox="0 0 62 48" version="1.1">
<g id="surface1">
<path style=" stroke:none;fill-rule:nonzero;fill:rgb(0%,0%,0%);fill-opacity:0.8;" d="M 19.09375 45.234375 C 19.09375 44.066406 18.148438 43.121094 16.980469 43.121094 C 15.8125 43.121094 14.867188 44.066406 14.867188 45.234375 C 14.867188 46.398438 15.8125 47.347656 16.980469 47.347656 C 18.148438 47.347656 19.09375 46.398438 19.09375 45.234375 Z M 19.09375 45.234375 "/>
<path style=" stroke:none;fill-rule:nonzero;fill:rgb(0%,0%,0%);fill-opacity:0.8;" d="M 47.441406 45.234375 C 47.441406 44.066406 46.496094 43.121094 45.328125 43.121094 C 44.160156 43.121094 43.214844 44.066406 43.214844 45.234375 C 43.214844 46.398438 44.160156 47.347656 45.328125 47.347656 C 46.496094 47.347656 47.441406 46.398438 47.441406 45.234375 Z M 47.441406 45.234375 "/>
<path style=" stroke:none;fill-rule:nonzero;fill:rgb(0%,0%,0%);fill-opacity:0.8;" d="M 61.617188 23.972656 C 61.617188 22.804688 60.667969 21.859375 59.5 21.859375 C 58.335938 21.859375 57.386719 22.804688 57.386719 23.972656 C 57.386719 25.140625 58.335938 26.085938 59.5 26.085938 C 60.667969 26.085938 61.617188 25.140625 61.617188 23.972656 Z M 61.617188 23.972656 "/>
<path style=" stroke:none;fill-rule:nonzero;fill:rgb(0%,0%,0%);fill-opacity:0.8;" d="M 47.441406 2.710938 C 47.441406 1.546875 46.496094 0.597656 45.328125 0.597656 C 44.160156 0.597656 43.214844 1.546875 43.214844 2.710938 C 43.214844 3.878906 44.160156 4.828125 45.328125 4.828125 C 46.496094 4.828125 47.441406 3.878906 47.441406 2.710938 Z M 47.441406 2.710938 "/>
<path style=" stroke:none;fill-rule:nonzero;fill:rgb(0%,0%,0%);fill-opacity:0.8;" d="M 19.09375 2.710938 C 19.09375 1.546875 18.148438 0.597656 16.980469 0.597656 C 15.8125 0.597656 14.867188 1.546875 14.867188 2.710938 C 14.867188 3.878906 15.8125 4.828125 16.980469 4.828125 C 18.148438 4.828125 19.09375 3.878906 19.09375 2.710938 Z M 19.09375 2.710938 "/>
<path style=" stroke:none;fill-rule:nonzero;fill:rgb(0%,0%,0%);fill-opacity:0.8;" d="M 4.921875 23.972656 C 4.921875 22.804688 3.976563 21.859375 2.808594 21.859375 C 1.640625 21.859375 0.695313 22.804688 0.695313 23.972656 C 0.695313 25.140625 1.640625 26.085938 2.808594 26.085938 C 3.976563 26.085938 4.921875 25.140625 4.921875 23.972656 Z M 4.921875 23.972656 "/>
<path style="fill:none;stroke-width:0.79701;stroke-linecap:butt;stroke-linejoin:miter;stroke:rgb(0%,0%,0%);stroke-opacity:1;stroke-miterlimit:10;" d="M -11.862031 -0.001375 L 11.860625 -0.001375 M 15.454375 1.924406 L 27.06375 19.334563 M 27.06375 23.186125 L 15.454375 40.596281 " transform="matrix(1,0,0,-1,31.155,45.233)"/>
<path style="fill:none;stroke-width:0.79701;stroke-linecap:butt;stroke-linejoin:miter;stroke:rgb(0%,0%,0%);stroke-opacity:1;stroke-miterlimit:10;" d="M 11.860625 42.522063 L -11.862031 42.522063 M -15.455781 40.596281 L -27.065156 23.186125 M -27.065156 19.334563 L -15.455781 1.924406 " transform="matrix(1,0,0,-1,31.155,45.233)"/>
<path style="fill:none;stroke-width:0.79701;stroke-linecap:butt;stroke-linejoin:miter;stroke:rgb(0%,0%,0%);stroke-opacity:1;stroke-miterlimit:10;" d="M -12.889375 1.924406 L 12.891875 40.596281 " transform="matrix(1,0,0,-1,31.155,45.233)"/>
<path style="fill:none;stroke-width:0.79701;stroke-linecap:butt;stroke-linejoin:miter;stroke:rgb(0%,0%,0%);stroke-opacity:1;stroke-miterlimit:10;" d="M 12.891875 1.924406 L -12.889375 40.596281 " transform="matrix(1,0,0,-1,31.155,45.233)"/>
<path style="fill:none;stroke-width:0.79701;stroke-linecap:butt;stroke-linejoin:miter;stroke:rgb(0%,0%,0%);stroke-opacity:1;stroke-miterlimit:10;" d="M 26.0325 21.260344 L -26.033906 21.260344 " transform="matrix(1,0,0,-1,31.155,45.233)"/>
</g>
</svg>
