<?xml version="1.0" encoding="UTF-8"?>
<svg xmlns="http://www.w3.org/2000/svg" xmlns:xlink="http://www.w3.org/1999/xlink" width="73pt" height="73pt" viewBox="0 0 73 73" version="1.1">
<g id="surface1">
<path style=" stroke:none;fill-rule:nonzero;fill:rgb(0%,0%,0%);fill-opacity:0.8;" d="M 53.109375 2.714844 C 53.109375 1.546875 52.164063 0.597656 50.996094 0.597656 C 49.832031 0.597656 48.882813 1.546875 48.882813 2.714844 C 48.882813 3.878906 49.832031 4.828125 50.996094 4.828125 C 52.164063 4.828125 53.109375 3.878906 53.109375 2.714844 Z M 53.109375 2.714844 "/>
<path style=" stroke:none;fill-rule:nonzero;fill:rgb(0%,0%,0%);fill-opacity:0.8;" d="M 53.109375 70.746094 C 53.109375 69.578125 52.164063 68.632813 50.996094 68.632813 C 49.832031 68.632813 48.882813 69.578125 48.882813 70.746094 C 48.882813 71.914063 49.832031 72.859375 50.996094 72.859375 C 52.164063 72.859375 53.109375 71.914063 53.109375 70.746094 Z M 53.109375 70.746094 "/>
<path style=" stroke:none;fill-rule:nonzero;fill:rgb(0%,0%,0%);fill-opacity:0.8;" d="M 24.765625 2.714844 C 24.765625 1.546875 23.816406 0.597656 22.652344 0.597656 C 21.484375 0.597656 20.539063 1.546875 20.539063 2.714844 C 20.539063 3.878906 21.484375 4.828125 22.652344 4.828125 C 23.816406 4.828125 24.765625 3.878906 24.765625 2.714844 Z M 24.765625 2.714844 "/>
<path style=" stroke:none;fill-rule:nonzero;fill:rgb(0%,0%,0%);fill-opacity:0.8;" d="M 24.765625 70.746094 C 24.765625 69.578125 23.816406 68.632813 22.652344 68.632813 C 21.484375 68.632813 20.539063 69.578125 20.539063 70.746094 C 20.539063 71.914063 21.484375 72.859375 22.652344 72.859375 C 23.816406 72.859375 24.765625 71.914063 24.765625 70.746094 Z M 24.765625 70.746094 "/>
<path style=" stroke:none;fill-rule:nonzero;fill:rgb(0%,0%,0%);fill-opacity:0.8;" d="M 72.953125 22.554688 C 72.953125 21.386719 72.007813 20.441406 70.839844 20.441406 C 69.671875 20.441406 68.726563 21.386719 68.726563 22.554688 C 68.726563 23.722656 69.671875 24.667969 70.839844 24.667969 C 72.007813 24.667969 72.953125 23.722656 72.953125 22.554688 Z M 72.953125 22.554688 "/>
<path style=" stroke:none;fill-rule:nonzero;fill:rgb(0%,0%,0%);fill-opacity:0.8;" d="M 72.953125 50.902344 C 72.953125 49.734375 72.007813 48.789063 70.839844 48.789063 C 69.671875 48.789063 68.726563 49.734375 68.726563 50.902344 C 68.726563 52.070313 69.671875 53.015625 70.839844 53.015625 C 72.007813 53.015625 72.953125 52.070313 72.953125 50.902344 Z M 72.953125 50.902344 "/>
<path style=" stroke:none;fill-rule:nonzero;fill:rgb(0%,0%,0%);fill-opacity:0.8;" d="M 4.921875 22.554688 C 4.921875 21.386719 3.976563 20.441406 2.808594 20.441406 C 1.640625 20.441406 0.695313 21.386719 0.695313 22.554688 C 0.695313 23.722656 1.640625 24.667969 2.808594 24.667969 C 3.976563 24.667969 4.921875 23.722656 4.921875 22.554688 Z M 4.921875 22.554688 "/>
<path style=" stroke:none;fill-rule:nonzero;fill:rgb(0%,0%,0%);fill-opacity:0.8;" d="M 4.921875 50.902344 C 4.921875 49.734375 3.976563 48.789063 2.808594 48.789063 C 1.640625 48.789063 0.695313 49.734375 0.695313 50.902344 C 0.695313 52.070313 1.640625 53.015625 2.808594 53.015625 C 3.976563 53.015625 4.921875 52.070313 4.921875 50.902344 Z M 4.921875 50.902344 "/>
<path style="fill:none;stroke-width:0.79701;stroke-linecap:butt;stroke-linejoin:miter;stroke:rgb(0%,0%,0%);stroke-opacity:1;stroke-miterlimit:10;" d="M 15.808813 32.381344 L 32.379125 15.807125 M 34.015844 11.861812 L 34.015844 -11.860844 M 32.379125 -15.810063 L 15.808813 -32.380375 M 11.859594 -34.017094 L -11.859156 -34.017094 M -15.808375 -32.380375 L -32.382594 -15.810063 M -34.015406 -11.860844 L -34.015406 11.861812 M -32.382594 15.807125 L -15.808375 32.381344 M -11.859156 34.014156 L 11.859594 34.014156 " transform="matrix(1,0,0,-1,36.824,36.729)"/>
<path style="fill:none;stroke-width:0.79701;stroke-linecap:butt;stroke-linejoin:miter;stroke:rgb(0%,0%,0%);stroke-opacity:1;stroke-miterlimit:10;" d="M 13.285375 31.881344 L -13.284937 -31.880375 " transform="matrix(1,0,0,-1,36.824,36.729)"/>
<path style="fill:none;stroke-width:0.79701;stroke-linecap:butt;stroke-linejoin:miter;stroke:rgb(0%,0%,0%);stroke-opacity:1;stroke-miterlimit:10;" d="M 13.285375 -31.880375 L -13.284937 31.881344 " transform="matrix(1,0,0,-1,36.824,36.729)"/>
<path style="fill:none;stroke-width:0.79701;stroke-linecap:butt;stroke-linejoin:miter;stroke:rgb(0%,0%,0%);stroke-opacity:1;stroke-miterlimit:10;" d="M 31.883031 13.283687 L -31.882594 -13.282719 " transform="matrix(1,0,0,-1,36.824,36.729)"/>
<path style="fill:none;stroke-width:0.79701;stroke-linecap:butt;stroke-linejoin:miter;stroke:rgb(0%,0%,0%);stroke-opacity:1;stroke-miterlimit:10;" d="M 31.883031 -13.282719 L -31.882594 13.283687 " transform="matrix(1,0,0,-1,36.824,36.729)"/>
</g>
</svg>
