<?xml version="1.0" encoding="UTF-8"?>
<svg xmlns="http://www.w3.org/2000/svg" xmlns:xlink="http://www.w3.org/1999/xlink" width="90pt" height="5pt" viewBox="0 0 90 5" version="1.1">
<g id="surface1">
<path style=" stroke:none;fill-rule:nonzero;fill:rgb(0%,0%,0%);fill-opacity:0.8;" d="M 4.921875 2.441406 C 4.921875 1.273438 3.976563 0.328125 2.808594 0.328125 C 1.640625 0.328125 0.695313 1.273438 0.695313 2.441406 C 0.695313 3.609375 1.640625 4.554688 2.808594 4.554688 C 3.976563 4.554688 4.921875 3.609375 4.921875 2.441406 Z M 4.921875 2.441406 "/>
<path style=" stroke:none;fill-rule:nonzero;fill:rgb(0%,0%,0%);fill-opacity:0.8;" d="M 21.929688 2.441406 C 21.929688 1.273438 20.984375 0.328125 19.816406 0.328125 C 18.648438 0.328125 17.703125 1.273438 17.703125 2.441406 C 17.703125 3.609375 18.648438 4.554688 19.816406 4.554688 C 20.984375 4.554688 21.929688 3.609375 21.929688 2.441406 Z M 21.929688 2.441406 "/>
<path style=" stroke:none;fill-rule:nonzero;fill:rgb(0%,0%,0%);fill-opacity:0.8;" d="M 38.9375 2.441406 C 38.9375 1.273438 37.992188 0.328125 36.824219 0.328125 C 35.65625 0.328125 34.710938 1.273438 34.710938 2.441406 C 34.710938 3.609375 35.65625 4.554688 36.824219 4.554688 C 37.992188 4.554688 38.9375 3.609375 38.9375 2.441406 Z M 38.9375 2.441406 "/>
<path style=" stroke:none;fill-rule:nonzero;fill:rgb(0%,0%,0%);fill-opacity:0.8;" d="M 55.945313 2.441406 C 55.945313 1.273438 55 0.328125 53.832031 0.328125 C 52.664063 0.328125 51.71875 1.273438 51.71875 2.441406 C 51.71875 3.609375 52.664063 4.554688 53.832031 4.554688 C 55 4.554688 55.945313 3.609375 55.945313 2.441406 Z M 55.945313 2.441406 "/>
<path style=" stroke:none;fill-rule:nonzero;fill:rgb(0%,0%,0%);fill-opacity:0.8;" d="M 72.953125 2.441406 C 72.953125 1.273438 72.007813 0.328125 70.839844 0.328125 C 69.671875 0.328125 68.726563 1.273438 68.726563 2.441406 C 68.726563 3.609375 69.671875 4.554688 70.839844 4.554688 C 72.007813 4.554688 72.953125 3.609375 72.953125 2.441406 Z M 72.953125 2.441406 "/>
<path style=" stroke:none;fill-rule:nonzero;fill:rgb(0%,0%,0%);fill-opacity:0.8;" d="M 89.960938 2.441406 C 89.960938 1.273438 89.015625 0.328125 87.847656 0.328125 C 86.683594 0.328125 85.734375 1.273438 85.734375 2.441406 C 85.734375 3.609375 86.683594 4.554688 87.847656 4.554688 C 89.015625 4.554688 89.960938 3.609375 89.960938 2.441406 Z M 89.960938 2.441406 "/>
<path style="fill:none;stroke-width:0.79701;stroke-linecap:butt;stroke-linejoin:miter;stroke:rgb(0%,0%,0%);stroke-opacity:1;stroke-miterlimit:10;" d="M 2.313094 0.00059375 L 14.695906 0.00059375 M 19.320906 0.00059375 L 31.703719 0.00059375 M 36.332625 0.00059375 L 48.715438 0.00059375 M 53.340438 0.00059375 L 65.72325 0.00059375 M 70.34825 0.00059375 L 82.734969 0.00059375 " transform="matrix(1,0,0,-1,2.808,2.442)"/>
</g>
</svg>
