<?xml version="1.0" encoding="UTF-8"?>
<svg xmlns="http://www.w3.org/2000/svg" xmlns:xlink="http://www.w3.org/1999/xlink" width="143pt" height="58pt" viewBox="0 0 143 58" version="1.1">
<g id="surface1">
<path style="fill:none;stroke-width:0.3985;stroke-linecap:butt;stroke-linejoin:miter;stroke:rgb(0%,0%,0%);stroke-opacity:1;stroke-dasharray:2.98883,2.98883;stroke-miterlimit:10;" d="M 0.00053125 -0.0001875 L 56.691938 -0.0001875 M 0.00053125 28.347469 L 56.691938 28.347469 M 0.00053125 56.683406 L 56.691938 56.683406 M 0.00053125 -0.0001875 L 0.00053125 56.695125 M 28.348188 -0.0001875 L 28.348188 56.695125 M 56.684125 -0.0001875 L 56.684125 56.695125 " transform="matrix(1,0,0,-1,0.894,57.492)"/>
<path style="fill:none;stroke-width:0.79701;stroke-linecap:butt;stroke-linejoin:miter;stroke:rgb(0%,0%,0%);stroke-opacity:1;stroke-miterlimit:10;" d="M 1.4185 1.417781 L 55.277875 1.417781 L 55.277875 26.9295 L 1.4185 26.9295 L 1.4185 1.417781 " transform="matrix(1,0,0,-1,0.894,57.492)"/>
<path style="fill:none;stroke-width:0.79701;stroke-linecap:butt;stroke-linejoin:miter;stroke:rgb(0%,0%,0%);stroke-opacity:1;stroke-miterlimit:10;" d="M 1.4185 29.765438 L 55.277875 29.765438 L 55.277875 55.277156 L 1.4185 55.277156 L 1.4185 29.765438 " transform="matrix(1,0,0,-1,0.894,57.492)"/>
<path style="fill:none;stroke-width:0.3985;stroke-linecap:butt;stroke-linejoin:miter;stroke:rgb(0%,0%,0%);stroke-opacity:1;stroke-dasharray:2.98883,2.98883;stroke-miterlimit:10;" d="M 85.039594 -0.0001875 L 141.734906 -0.0001875 M 85.039594 28.347469 L 141.734906 28.347469 M 85.039594 56.683406 L 141.734906 56.683406 M 85.039594 -0.0001875 L 85.039594 56.695125 M 113.38725 -0.0001875 L 113.38725 56.695125 M 141.723187 -0.0001875 L 141.723187 56.695125 " transform="matrix(1,0,0,-1,0.894,57.492)"/>
<path style="fill:none;stroke-width:0.79701;stroke-linecap:butt;stroke-linejoin:miter;stroke:rgb(0%,0%,0%);stroke-opacity:1;stroke-miterlimit:10;" d="M 86.457562 1.417781 L 86.457562 55.277156 L 111.969281 55.277156 L 111.969281 1.417781 L 86.457562 1.417781 " transform="matrix(1,0,0,-1,0.894,57.492)"/>
<path style="fill:none;stroke-width:0.79701;stroke-linecap:butt;stroke-linejoin:miter;stroke:rgb(0%,0%,0%);stroke-opacity:1;stroke-miterlimit:10;" d="M 114.805219 1.417781 L 114.805219 55.277156 L 140.316937 55.277156 L 140.316937 1.417781 L 114.805219 1.417781 " transform="matrix(1,0,0,-1,0.894,57.492)"/>
</g>
</svg>
