<?xml version="1.0" encoding="UTF-8"?>
<svg xmlns="http://www.w3.org/2000/svg" xmlns:xlink="http://www.w3.org/1999/xlink" width="51pt" height="47pt" viewBox="0 0 51 47" version="1.1">
<g id="surface1">
<path style=" stroke:none;fill-rule:nonzero;fill:rgb(0%,0%,0%);fill-opacity:0.8;" d="M 4.921875 44.664063 C 4.921875 43.496094 3.976563 42.550781 2.808594 42.550781 C 1.640625 42.550781 0.695313 43.496094 0.695313 44.664063 C 0.695313 45.832031 1.640625 46.777344 2.808594 46.777344 C 3.976563 46.777344 4.921875 45.832031 4.921875 44.664063 Z M 4.921875 44.664063 "/>
<path style=" stroke:none;fill-rule:nonzero;fill:rgb(0%,0%,0%);fill-opacity:0.8;" d="M 50.277344 44.664063 C 50.277344 43.496094 49.328125 42.550781 48.164063 42.550781 C 46.996094 42.550781 46.046875 43.496094 46.046875 44.664063 C 46.046875 45.832031 46.996094 46.777344 48.164063 46.777344 C 49.328125 46.777344 50.277344 45.832031 50.277344 44.664063 Z M 50.277344 44.664063 "/>
<path style=" stroke:none;fill-rule:nonzero;fill:rgb(0%,0%,0%);fill-opacity:0.8;" d="M 27.597656 2.710938 C 27.597656 1.546875 26.652344 0.597656 25.484375 0.597656 C 24.316406 0.597656 23.371094 1.546875 23.371094 2.710938 C 23.371094 3.878906 24.316406 4.824219 25.484375 4.824219 C 26.652344 4.824219 27.597656 3.878906 27.597656 2.710938 Z M 27.597656 2.710938 "/>
<path style=" stroke:none;fill-rule:nonzero;fill:rgb(0%,0%,0%);fill-opacity:0.8;" d="M 19.660156 33.328125 C 19.660156 32.160156 18.714844 31.214844 17.546875 31.214844 C 16.382813 31.214844 15.433594 32.160156 15.433594 33.328125 C 15.433594 34.492188 16.382813 35.441406 17.546875 35.441406 C 18.714844 35.441406 19.660156 34.492188 19.660156 33.328125 Z M 19.660156 33.328125 "/>
<path style=" stroke:none;fill-rule:nonzero;fill:rgb(0%,0%,0%);fill-opacity:0.8;" d="M 35.535156 33.328125 C 35.535156 32.160156 34.589844 31.214844 33.421875 31.214844 C 32.253906 31.214844 31.308594 32.160156 31.308594 33.328125 C 31.308594 34.492188 32.253906 35.441406 33.421875 35.441406 C 34.589844 35.441406 35.535156 34.492188 35.535156 33.328125 Z M 35.535156 33.328125 "/>
<path style=" stroke:none;fill-rule:nonzero;fill:rgb(0%,0%,0%);fill-opacity:0.8;" d="M 27.597656 21.988281 C 27.597656 20.820313 26.652344 19.875 25.484375 19.875 C 24.316406 19.875 23.371094 20.820313 23.371094 21.988281 C 23.371094 23.15625 24.316406 24.101563 25.484375 24.101563 C 26.652344 24.101563 27.597656 23.15625 27.597656 21.988281 Z M 27.597656 21.988281 "/>
<path style="fill:none;stroke-width:0.79701;stroke-linecap:butt;stroke-linejoin:miter;stroke:rgb(0%,0%,0%);stroke-opacity:1;stroke-miterlimit:10;" d="M 2.313094 0.0009375 L 43.043563 0.0009375 M 44.2545 2.036094 L 23.777938 39.918906 M 21.578719 39.918906 L 1.09825 2.036094 " transform="matrix(1,0,0,-1,2.808,44.665)"/>
<path style="fill:none;stroke-width:0.79701;stroke-linecap:butt;stroke-linejoin:miter;stroke:rgb(0%,0%,0%);stroke-opacity:1;stroke-miterlimit:10;" d="M 17.055281 11.340781 L 28.301375 11.340781 M 29.289656 13.235312 L 24.0045 20.782187 M 21.352156 20.782187 L 16.067 13.235312 " transform="matrix(1,0,0,-1,2.808,44.665)"/>
<path style="fill:none;stroke-width:0.79701;stroke-linecap:butt;stroke-linejoin:miter;stroke:rgb(0%,0%,0%);stroke-opacity:1;stroke-miterlimit:10;" d="M 1.832625 1.411094 L 12.906844 9.930625 " transform="matrix(1,0,0,-1,2.808,44.665)"/>
<path style="fill:none;stroke-width:0.79701;stroke-linecap:butt;stroke-linejoin:miter;stroke:rgb(0%,0%,0%);stroke-opacity:1;stroke-miterlimit:10;" d="M 43.524031 1.411094 L 32.449813 9.930625 " transform="matrix(1,0,0,-1,2.808,44.665)"/>
<path style="fill:none;stroke-width:0.79701;stroke-linecap:butt;stroke-linejoin:miter;stroke:rgb(0%,0%,0%);stroke-opacity:1;stroke-miterlimit:10;" d="M 22.676375 39.641562 L 22.676375 24.989219 " transform="matrix(1,0,0,-1,2.808,44.665)"/>
</g>
</svg>
