<?xml version="1.0" encoding="UTF-8"?>
<svg xmlns="http://www.w3.org/2000/svg" xmlns:xlink="http://www.w3.org/1999/xlink" width="65pt" height="65pt" viewBox="0 0 65 65" version="1.1">
<g id="surface1">
<path style=" stroke:none;fill-rule:nonzero;fill:rgb(0%,0%,0%);fill-opacity:0.8;" d="M 4.921875 62.242188 C 4.921875 61.074219 3.976563 60.128906 2.808594 60.128906 C 1.640625 60.128906 0.695313 61.074219 0.695313 62.242188 C 0.695313 63.410156 1.640625 64.355469 2.808594 64.355469 C 3.976563 64.355469 4.921875 63.410156 4.921875 62.242188 Z M 4.921875 62.242188 "/>
<path style=" stroke:none;fill-rule:nonzero;fill:rgb(0%,0%,0%);fill-opacity:0.8;" d="M 4.921875 42.398438 C 4.921875 41.230469 3.976563 40.285156 2.808594 40.285156 C 1.640625 40.285156 0.695313 41.230469 0.695313 42.398438 C 0.695313 43.566406 1.640625 44.511719 2.808594 44.511719 C 3.976563 44.511719 4.921875 43.566406 4.921875 42.398438 Z M 4.921875 42.398438 "/>
<path style=" stroke:none;fill-rule:nonzero;fill:rgb(0%,0%,0%);fill-opacity:0.8;" d="M 4.921875 22.554688 C 4.921875 21.386719 3.976563 20.441406 2.808594 20.441406 C 1.640625 20.441406 0.695313 21.386719 0.695313 22.554688 C 0.695313 23.722656 1.640625 24.667969 2.808594 24.667969 C 3.976563 24.667969 4.921875 23.722656 4.921875 22.554688 Z M 4.921875 22.554688 "/>
<path style=" stroke:none;fill-rule:nonzero;fill:rgb(0%,0%,0%);fill-opacity:0.8;" d="M 4.921875 2.714844 C 4.921875 1.546875 3.976563 0.597656 2.808594 0.597656 C 1.640625 0.597656 0.695313 1.546875 0.695313 2.714844 C 0.695313 3.878906 1.640625 4.828125 2.808594 4.828125 C 3.976563 4.828125 4.921875 3.878906 4.921875 2.714844 Z M 4.921875 2.714844 "/>
<path style=" stroke:none;fill-rule:nonzero;fill:rgb(0%,0%,0%);fill-opacity:0.8;" d="M 64.449219 62.242188 C 64.449219 61.074219 63.503906 60.128906 62.335938 60.128906 C 61.167969 60.128906 60.222656 61.074219 60.222656 62.242188 C 60.222656 63.410156 61.167969 64.355469 62.335938 64.355469 C 63.503906 64.355469 64.449219 63.410156 64.449219 62.242188 Z M 64.449219 62.242188 "/>
<path style=" stroke:none;fill-rule:nonzero;fill:rgb(0%,0%,0%);fill-opacity:0.8;" d="M 64.449219 42.398438 C 64.449219 41.230469 63.503906 40.285156 62.335938 40.285156 C 61.167969 40.285156 60.222656 41.230469 60.222656 42.398438 C 60.222656 43.566406 61.167969 44.511719 62.335938 44.511719 C 63.503906 44.511719 64.449219 43.566406 64.449219 42.398438 Z M 64.449219 42.398438 "/>
<path style=" stroke:none;fill-rule:nonzero;fill:rgb(0%,0%,0%);fill-opacity:0.8;" d="M 64.449219 22.554688 C 64.449219 21.386719 63.503906 20.441406 62.335938 20.441406 C 61.167969 20.441406 60.222656 21.386719 60.222656 22.554688 C 60.222656 23.722656 61.167969 24.667969 62.335938 24.667969 C 63.503906 24.667969 64.449219 23.722656 64.449219 22.554688 Z M 64.449219 22.554688 "/>
<path style=" stroke:none;fill-rule:nonzero;fill:rgb(0%,0%,0%);fill-opacity:0.8;" d="M 64.449219 2.714844 C 64.449219 1.546875 63.503906 0.597656 62.335938 0.597656 C 61.167969 0.597656 60.222656 1.546875 60.222656 2.714844 C 60.222656 3.878906 61.167969 4.828125 62.335938 4.828125 C 63.503906 4.828125 64.449219 3.878906 64.449219 2.714844 Z M 64.449219 2.714844 "/>
<path style="fill:none;stroke-width:0.79701;stroke-linecap:butt;stroke-linejoin:miter;stroke:rgb(0%,0%,0%);stroke-opacity:1;stroke-miterlimit:10;" d="M 2.192 0.733187 L 57.336531 19.112094 M 57.336531 20.573031 L 2.192 38.955844 M 2.192 40.416781 L 57.336531 58.799594 M 57.606063 58.244906 L 1.922469 21.127719 M 2.192 19.112094 L 57.336531 0.733187 M 57.895125 1.635531 L 1.633406 57.893344 M 2.192 58.799594 L 57.336531 40.416781 M 57.606063 38.405063 L 1.922469 1.283969 " transform="matrix(1,0,0,-1,2.808,62.241)"/>
<path style="fill:none;stroke-width:0.79701;stroke-linecap:butt;stroke-linejoin:miter;stroke:rgb(0%,0%,0%);stroke-opacity:1;stroke-miterlimit:10;" d="M 1.633406 1.635531 L 57.895125 57.893344 " transform="matrix(1,0,0,-1,2.808,62.241)"/>
<path style="fill:none;stroke-width:0.79701;stroke-linecap:butt;stroke-linejoin:miter;stroke:rgb(0%,0%,0%);stroke-opacity:1;stroke-miterlimit:10;" d="M 2.192 20.573031 L 57.336531 38.955844 " transform="matrix(1,0,0,-1,2.808,62.241)"/>
<path style="fill:none;stroke-width:0.79701;stroke-linecap:butt;stroke-linejoin:miter;stroke:rgb(0%,0%,0%);stroke-opacity:1;stroke-miterlimit:10;" d="M 1.922469 38.405063 L 57.606063 1.283969 " transform="matrix(1,0,0,-1,2.808,62.241)"/>
<path style="fill:none;stroke-width:0.79701;stroke-linecap:butt;stroke-linejoin:miter;stroke:rgb(0%,0%,0%);stroke-opacity:1;stroke-miterlimit:10;" d="M 1.922469 58.244906 L 57.606063 21.127719 " transform="matrix(1,0,0,-1,2.808,62.241)"/>
</g>
</svg>
