<?xml version="1.0" encoding="UTF-8"?>
<svg xmlns="http://www.w3.org/2000/svg" xmlns:xlink="http://www.w3.org/1999/xlink" width="39pt" height="56pt" viewBox="0 0 39 56" version="1.1">
<g id="surface1">
<path style=" stroke:none;fill-rule:nonzero;fill:rgb(0%,0%,0%);fill-opacity:0.8;" d="M 4.921875 53.738281 C 4.921875 52.570313 3.976563 51.625 2.808594 51.625 C 1.640625 51.625 0.695313 52.570313 0.695313 53.738281 C 0.695313 54.90625 1.640625 55.851563 2.808594 55.851563 C 3.976563 55.851563 4.921875 54.90625 4.921875 53.738281 Z M 4.921875 53.738281 "/>
<path style=" stroke:none;fill-rule:nonzero;fill:rgb(0%,0%,0%);fill-opacity:0.8;" d="M 21.929688 36.730469 C 21.929688 35.5625 20.984375 34.617188 19.816406 34.617188 C 18.648438 34.617188 17.703125 35.5625 17.703125 36.730469 C 17.703125 37.898438 18.648438 38.84375 19.816406 38.84375 C 20.984375 38.84375 21.929688 37.898438 21.929688 36.730469 Z M 21.929688 36.730469 "/>
<path style=" stroke:none;fill-rule:nonzero;fill:rgb(0%,0%,0%);fill-opacity:0.8;" d="M 38.9375 19.722656 C 38.9375 18.554688 37.992188 17.609375 36.824219 17.609375 C 35.65625 17.609375 34.710938 18.554688 34.710938 19.722656 C 34.710938 20.890625 35.65625 21.835938 36.824219 21.835938 C 37.992188 21.835938 38.9375 20.890625 38.9375 19.722656 Z M 38.9375 19.722656 "/>
<path style=" stroke:none;fill-rule:nonzero;fill:rgb(0%,0%,0%);fill-opacity:0.8;" d="M 38.9375 53.738281 C 38.9375 52.570313 37.992188 51.625 36.824219 51.625 C 35.65625 51.625 34.710938 52.570313 34.710938 53.738281 C 34.710938 54.90625 35.65625 55.851563 36.824219 55.851563 C 37.992188 55.851563 38.9375 54.90625 38.9375 53.738281 Z M 38.9375 53.738281 "/>
<path style=" stroke:none;fill-rule:nonzero;fill:rgb(0%,0%,0%);fill-opacity:0.8;" d="M 21.929688 2.714844 C 21.929688 1.546875 20.984375 0.601563 19.816406 0.601563 C 18.648438 0.601563 17.703125 1.546875 17.703125 2.714844 C 17.703125 3.878906 18.648438 4.828125 19.816406 4.828125 C 20.984375 4.828125 21.929688 3.878906 21.929688 2.714844 Z M 21.929688 2.714844 "/>
<path style="fill:none;stroke-width:0.79701;stroke-linecap:butt;stroke-linejoin:miter;stroke:rgb(0%,0%,0%);stroke-opacity:1;stroke-miterlimit:10;" d="M 1.637313 1.636438 L 15.375594 15.374719 M 18.645125 18.64425 L 32.383406 32.382531 M 34.020125 31.70675 L 34.020125 2.312219 M 33.28575 2.195031 L 17.738875 48.835656 " transform="matrix(1,0,0,-1,2.808,53.738)"/>
</g>
</svg>
