<?xml version="1.0" encoding="UTF-8"?>
<svg xmlns="http://www.w3.org/2000/svg" xmlns:xlink="http://www.w3.org/1999/xlink" width="56pt" height="39pt" viewBox="0 0 56 39" version="1.1">
<g id="surface1">
<path style=" stroke:none;fill-rule:nonzero;fill:rgb(0%,0%,0%);fill-opacity:0.8;" d="M 4.921875 36.730469 C 4.921875 35.5625 3.976563 34.617188 2.808594 34.617188 C 1.640625 34.617188 0.695313 35.5625 0.695313 36.730469 C 0.695313 37.894531 1.640625 38.84375 2.808594 38.84375 C 3.976563 38.84375 4.921875 37.894531 4.921875 36.730469 Z M 4.921875 36.730469 "/>
<path style=" stroke:none;fill-rule:nonzero;fill:rgb(0%,0%,0%);fill-opacity:0.8;" d="M 38.9375 36.730469 C 38.9375 35.5625 37.992188 34.617188 36.824219 34.617188 C 35.65625 34.617188 34.710938 35.5625 34.710938 36.730469 C 34.710938 37.894531 35.65625 38.84375 36.824219 38.84375 C 37.992188 38.84375 38.9375 37.894531 38.9375 36.730469 Z M 38.9375 36.730469 "/>
<path style=" stroke:none;fill-rule:nonzero;fill:rgb(0%,0%,0%);fill-opacity:0.8;" d="M 38.9375 2.710938 C 38.9375 1.546875 37.992188 0.597656 36.824219 0.597656 C 35.65625 0.597656 34.710938 1.546875 34.710938 2.710938 C 34.710938 3.878906 35.65625 4.824219 36.824219 4.824219 C 37.992188 4.824219 38.9375 3.878906 38.9375 2.710938 Z M 38.9375 2.710938 "/>
<path style=" stroke:none;fill-rule:nonzero;fill:rgb(0%,0%,0%);fill-opacity:0.8;" d="M 4.921875 2.710938 C 4.921875 1.546875 3.976563 0.597656 2.808594 0.597656 C 1.640625 0.597656 0.695313 1.546875 0.695313 2.710938 C 0.695313 3.878906 1.640625 4.824219 2.808594 4.824219 C 3.976563 4.824219 4.921875 3.878906 4.921875 2.710938 Z M 4.921875 2.710938 "/>
<path style=" stroke:none;fill-rule:nonzero;fill:rgb(0%,0%,0%);fill-opacity:0.8;" d="M 55.945313 19.722656 C 55.945313 18.554688 55 17.605469 53.832031 17.605469 C 52.664063 17.605469 51.71875 18.554688 51.71875 19.722656 C 51.71875 20.886719 52.664063 21.835938 53.832031 21.835938 C 55 21.835938 55.945313 20.886719 55.945313 19.722656 Z M 55.945313 19.722656 "/>
<path style="fill:none;stroke-width:0.79701;stroke-linecap:butt;stroke-linejoin:miter;stroke:rgb(0%,0%,0%);stroke-opacity:1;stroke-miterlimit:10;" d="M 2.313094 -0.00146875 L 31.703719 -0.00146875 M 34.020125 2.311031 L 34.020125 31.705562 M 31.707625 34.018062 L 2.313094 34.018062 M 0.00059375 31.705562 L 0.00059375 2.311031 " transform="matrix(1,0,0,-1,2.808,36.729)"/>
<path style="fill:none;stroke-width:0.79701;stroke-linecap:butt;stroke-linejoin:miter;stroke:rgb(0%,0%,0%);stroke-opacity:1;stroke-miterlimit:10;" d="M 35.652938 1.63525 L 49.391219 15.373531 M 49.391219 18.643062 L 35.652938 32.381344 " transform="matrix(1,0,0,-1,2.808,36.729)"/>
</g>
</svg>
