<?xml version="1.0" encoding="UTF-8"?>
<svg xmlns="http://www.w3.org/2000/svg" xmlns:xlink="http://www.w3.org/1999/xlink" width="97pt" height="83pt" viewBox="0 0 97 83" version="1.1">
<g id="surface1">
<path style=" stroke:none;fill-rule:nonzero;fill:rgb(0%,0%,0%);fill-opacity:1;" d="M 15.304688 80.613281 C 15.304688 79.445313 14.359375 78.5 13.191406 78.5 C 12.023438 78.5 11.078125 79.445313 11.078125 80.613281 C 11.078125 81.78125 12.023438 82.726563 13.191406 82.726563 C 14.359375 82.726563 15.304688 81.78125 15.304688 80.613281 Z M 15.304688 80.613281 "/>
<path style=" stroke:none;fill-rule:nonzero;fill:rgb(0%,0%,0%);fill-opacity:1;" d="M 50.738281 80.613281 C 50.738281 79.445313 49.792969 78.5 48.625 78.5 C 47.457031 78.5 46.511719 79.445313 46.511719 80.613281 C 46.511719 81.78125 47.457031 82.726563 48.625 82.726563 C 49.792969 82.726563 50.738281 81.78125 50.738281 80.613281 Z M 50.738281 80.613281 "/>
<path style=" stroke:none;fill-rule:nonzero;fill:rgb(0%,0%,0%);fill-opacity:1;" d="M 86.171875 80.613281 C 86.171875 79.445313 85.226563 78.5 84.058594 78.5 C 82.890625 78.5 81.945313 79.445313 81.945313 80.613281 C 81.945313 81.78125 82.890625 82.726563 84.058594 82.726563 C 85.226563 82.726563 86.171875 81.78125 86.171875 80.613281 Z M 86.171875 80.613281 "/>
<path style=" stroke:none;fill-rule:nonzero;fill:rgb(0%,0%,0%);fill-opacity:1;" d="M 72 52.265625 C 72 51.097656 71.054688 50.152344 69.886719 50.152344 C 68.71875 50.152344 67.773438 51.097656 67.773438 52.265625 C 67.773438 53.433594 68.71875 54.378906 69.886719 54.378906 C 71.054688 54.378906 72 53.433594 72 52.265625 Z M 72 52.265625 "/>
<path style=" stroke:none;fill-rule:nonzero;fill:rgb(0%,0%,0%);fill-opacity:1;" d="M 29.480469 52.265625 C 29.480469 51.097656 28.53125 50.152344 27.367188 50.152344 C 26.199219 50.152344 25.253906 51.097656 25.253906 52.265625 C 25.253906 53.433594 26.199219 54.378906 27.367188 54.378906 C 28.53125 54.378906 29.480469 53.433594 29.480469 52.265625 Z M 29.480469 52.265625 "/>
<path style=" stroke:none;fill-rule:nonzero;fill:rgb(0%,0%,0%);fill-opacity:1;" d="M 50.738281 2.660156 C 50.738281 1.492188 49.792969 0.546875 48.625 0.546875 C 47.457031 0.546875 46.511719 1.492188 46.511719 2.660156 C 46.511719 3.828125 47.457031 4.773438 48.625 4.773438 C 49.792969 4.773438 50.738281 3.828125 50.738281 2.660156 Z M 50.738281 2.660156 "/>
<path style="fill:none;stroke-width:0.3985;stroke-linecap:butt;stroke-linejoin:miter;stroke:rgb(0%,0%,0%);stroke-opacity:1;stroke-miterlimit:10;" d="M 15.207562 16.240125 L 27.313031 40.451063 " transform="matrix(1,0,0,-1,-0.981,94.787)"/>
<path style="fill:none;stroke-width:0.3985;stroke-linecap:butt;stroke-linejoin:miter;stroke:rgb(0%,0%,0%);stroke-opacity:1;stroke-miterlimit:10;" d="M 13.176312 16.259656 C -0.784625 45.458875 16.19975 82.826063 47.379437 91.50575 " transform="matrix(1,0,0,-1,-0.981,94.787)"/>
<path style="fill:none;stroke-width:0.3985;stroke-linecap:butt;stroke-linejoin:miter;stroke:rgb(0%,0%,0%);stroke-opacity:1;stroke-miterlimit:10;" d="M 12.266156 15.482313 C -15.124469 34.267469 15.203656 100.990125 47.367719 92.704969 " transform="matrix(1,0,0,-1,-0.981,94.787)"/>
<path style="fill:none;stroke-width:0.3985;stroke-linecap:butt;stroke-linejoin:miter;stroke:rgb(0%,0%,0%);stroke-opacity:1;stroke-miterlimit:10;" d="M 28.875531 44.771375 C 33.277875 63.548719 37.781781 74.052625 48.340375 90.19325 " transform="matrix(1,0,0,-1,-0.981,94.787)"/>
<path style="fill:none;stroke-width:0.3985;stroke-linecap:butt;stroke-linejoin:miter;stroke:rgb(0%,0%,0%);stroke-opacity:1;stroke-miterlimit:10;" d="M 28.07475 44.81825 C 25.76225 64.181531 32.141156 79.060438 47.754437 90.740125 " transform="matrix(1,0,0,-1,-0.981,94.787)"/>
<path style="fill:none;stroke-width:0.3985;stroke-linecap:butt;stroke-linejoin:miter;stroke:rgb(0%,0%,0%);stroke-opacity:1;stroke-miterlimit:10;" d="M 86.039594 16.259656 C 100.000531 45.458875 83.01225 82.826063 51.836469 91.50575 " transform="matrix(1,0,0,-1,-0.981,94.787)"/>
<path style="fill:none;stroke-width:0.3985;stroke-linecap:butt;stroke-linejoin:miter;stroke:rgb(0%,0%,0%);stroke-opacity:1;stroke-miterlimit:10;" d="M 86.945844 15.482313 C 114.340375 34.267469 84.01225 100.990125 51.848187 92.704969 " transform="matrix(1,0,0,-1,-0.981,94.787)"/>
<path style="fill:none;stroke-width:0.3985;stroke-linecap:butt;stroke-linejoin:miter;stroke:rgb(0%,0%,0%);stroke-opacity:1;stroke-miterlimit:10;" d="M 70.340375 44.771375 C 65.934125 63.548719 61.434125 74.052625 50.871625 90.19325 " transform="matrix(1,0,0,-1,-0.981,94.787)"/>
<path style="fill:none;stroke-width:0.3985;stroke-linecap:butt;stroke-linejoin:miter;stroke:rgb(0%,0%,0%);stroke-opacity:1;stroke-miterlimit:10;" d="M 71.141156 44.81825 C 73.44975 64.181531 67.07475 79.060438 51.457562 90.740125 " transform="matrix(1,0,0,-1,-0.981,94.787)"/>
<path style="fill:none;stroke-width:0.3985;stroke-linecap:butt;stroke-linejoin:miter;stroke:rgb(0%,0%,0%);stroke-opacity:1;stroke-miterlimit:10;" d="M 50.398969 16.345594 C 60.215375 43.322156 60.215375 62.978406 50.398969 89.954969 " transform="matrix(1,0,0,-1,-0.981,94.787)"/>
<path style="fill:none;stroke-width:0.3985;stroke-linecap:butt;stroke-linejoin:miter;stroke:rgb(0%,0%,0%);stroke-opacity:1;stroke-miterlimit:10;" d="M 16.484906 14.173719 L 47.2935 14.173719 " transform="matrix(1,0,0,-1,-0.981,94.787)"/>
<path style="fill:none;stroke-width:0.3985;stroke-linecap:butt;stroke-linejoin:miter;stroke:rgb(0%,0%,0%);stroke-opacity:1;stroke-miterlimit:10;" d="M 48.219281 16.021375 L 29.734906 40.669813 " transform="matrix(1,0,0,-1,-0.981,94.787)"/>
<path style="fill:none;stroke-width:0.3985;stroke-linecap:butt;stroke-linejoin:miter;stroke:rgb(0%,0%,0%);stroke-opacity:1;stroke-miterlimit:10;" d="M 50.996625 16.021375 L 69.481 40.669813 " transform="matrix(1,0,0,-1,-0.981,94.787)"/>
<path style="fill:none;stroke-width:0.3985;stroke-linecap:butt;stroke-linejoin:miter;stroke:rgb(0%,0%,0%);stroke-opacity:1;stroke-miterlimit:10;" d="M 51.9185 14.173719 L 82.727094 14.173719 " transform="matrix(1,0,0,-1,-0.981,94.787)"/>
<path style="fill:none;stroke-width:0.3985;stroke-linecap:butt;stroke-linejoin:miter;stroke:rgb(0%,0%,0%);stroke-opacity:1;stroke-miterlimit:10;" d="M 68.555219 42.521375 L 30.660687 42.521375 " transform="matrix(1,0,0,-1,-0.981,94.787)"/>
<path style="fill:none;stroke-width:0.3985;stroke-linecap:butt;stroke-linejoin:miter;stroke:rgb(0%,0%,0%);stroke-opacity:1;stroke-miterlimit:10;" d="M 84.004437 16.240125 L 71.902875 40.451063 " transform="matrix(1,0,0,-1,-0.981,94.787)"/>
</g>
</svg>
