<?xml version="1.0" encoding="UTF-8"?>
<svg xmlns="http://www.w3.org/2000/svg" xmlns:xlink="http://www.w3.org/1999/xlink" width="65pt" height="56pt" viewBox="0 0 65 56" version="1.1">
<g id="surface1">
<path style=" stroke:none;fill-rule:nonzero;fill:rgb(0%,0%,0%);fill-opacity:0.8;" d="M 38.9375 2.710938 C 38.9375 1.546875 37.992188 0.597656 36.824219 0.597656 C 35.65625 0.597656 34.710938 1.546875 34.710938 2.710938 C 34.710938 3.878906 35.65625 4.824219 36.824219 4.824219 C 37.992188 4.824219 38.9375 3.878906 38.9375 2.710938 Z M 38.9375 2.710938 "/>
<path style=" stroke:none;fill-rule:nonzero;fill:rgb(0%,0%,0%);fill-opacity:0.8;" d="M 21.929688 19.722656 C 21.929688 18.554688 20.984375 17.605469 19.816406 17.605469 C 18.648438 17.605469 17.703125 18.554688 17.703125 19.722656 C 17.703125 20.886719 18.648438 21.835938 19.816406 21.835938 C 20.984375 21.835938 21.929688 20.886719 21.929688 19.722656 Z M 21.929688 19.722656 "/>
<path style=" stroke:none;fill-rule:nonzero;fill:rgb(0%,0%,0%);fill-opacity:0.8;" d="M 55.945313 19.722656 C 55.945313 18.554688 55 17.605469 53.832031 17.605469 C 52.664063 17.605469 51.71875 18.554688 51.71875 19.722656 C 51.71875 20.886719 52.664063 21.835938 53.832031 21.835938 C 55 21.835938 55.945313 20.886719 55.945313 19.722656 Z M 55.945313 19.722656 "/>
<path style=" stroke:none;fill-rule:nonzero;fill:rgb(0%,0%,0%);fill-opacity:0.8;" d="M 13.425781 36.730469 C 13.425781 35.5625 12.480469 34.617188 11.3125 34.617188 C 10.144531 34.617188 9.199219 35.5625 9.199219 36.730469 C 9.199219 37.894531 10.144531 38.84375 11.3125 38.84375 C 12.480469 38.84375 13.425781 37.894531 13.425781 36.730469 Z M 13.425781 36.730469 "/>
<path style=" stroke:none;fill-rule:nonzero;fill:rgb(0%,0%,0%);fill-opacity:0.8;" d="M 30.433594 36.730469 C 30.433594 35.5625 29.488281 34.617188 28.320313 34.617188 C 27.152344 34.617188 26.207031 35.5625 26.207031 36.730469 C 26.207031 37.894531 27.152344 38.84375 28.320313 38.84375 C 29.488281 38.84375 30.433594 37.894531 30.433594 36.730469 Z M 30.433594 36.730469 "/>
<path style=" stroke:none;fill-rule:nonzero;fill:rgb(0%,0%,0%);fill-opacity:0.8;" d="M 47.441406 36.730469 C 47.441406 35.5625 46.496094 34.617188 45.328125 34.617188 C 44.160156 34.617188 43.214844 35.5625 43.214844 36.730469 C 43.214844 37.894531 44.160156 38.84375 45.328125 38.84375 C 46.496094 38.84375 47.441406 37.894531 47.441406 36.730469 Z M 47.441406 36.730469 "/>
<path style=" stroke:none;fill-rule:nonzero;fill:rgb(0%,0%,0%);fill-opacity:0.8;" d="M 64.449219 36.730469 C 64.449219 35.5625 63.503906 34.617188 62.335938 34.617188 C 61.167969 34.617188 60.222656 35.5625 60.222656 36.730469 C 60.222656 37.894531 61.167969 38.84375 62.335938 38.84375 C 63.503906 38.84375 64.449219 37.894531 64.449219 36.730469 Z M 64.449219 36.730469 "/>
<path style=" stroke:none;fill-rule:nonzero;fill:rgb(0%,0%,0%);fill-opacity:0.8;" d="M 4.921875 53.738281 C 4.921875 52.570313 3.976563 51.625 2.808594 51.625 C 1.640625 51.625 0.695313 52.570313 0.695313 53.738281 C 0.695313 54.90625 1.640625 55.851563 2.808594 55.851563 C 3.976563 55.851563 4.921875 54.90625 4.921875 53.738281 Z M 4.921875 53.738281 "/>
<path style=" stroke:none;fill-rule:nonzero;fill:rgb(0%,0%,0%);fill-opacity:0.8;" d="M 38.9375 53.738281 C 38.9375 52.570313 37.992188 51.625 36.824219 51.625 C 35.65625 51.625 34.710938 52.570313 34.710938 53.738281 C 34.710938 54.90625 35.65625 55.851563 36.824219 55.851563 C 37.992188 55.851563 38.9375 54.90625 38.9375 53.738281 Z M 38.9375 53.738281 "/>
<path style=" stroke:none;fill-rule:nonzero;fill:rgb(0%,0%,0%);fill-opacity:0.8;" d="M 55.945313 53.738281 C 55.945313 52.570313 55 51.625 53.832031 51.625 C 52.664063 51.625 51.71875 52.570313 51.71875 53.738281 C 51.71875 54.90625 52.664063 55.851563 53.832031 55.851563 C 55 55.851563 55.945313 54.90625 55.945313 53.738281 Z M 55.945313 53.738281 "/>
<path style="fill:none;stroke-width:0.79701;stroke-linecap:butt;stroke-linejoin:miter;stroke:rgb(0%,0%,0%);stroke-opacity:1;stroke-miterlimit:10;" d="M -15.374781 18.643062 L -1.6365 32.381344 M 1.636938 32.381344 L 15.375219 18.643062 " transform="matrix(1,0,0,-1,36.824,36.729)"/>
<path style="fill:none;stroke-width:0.79701;stroke-linecap:butt;stroke-linejoin:miter;stroke:rgb(0%,0%,0%);stroke-opacity:1;stroke-miterlimit:10;" d="M -32.984156 -14.938969 L -26.546656 -2.067875 M -24.48025 2.068844 L -18.04275 14.939937 M -15.976344 14.939937 L -9.538844 2.068844 " transform="matrix(1,0,0,-1,36.824,36.729)"/>
<path style="fill:none;stroke-width:0.79701;stroke-linecap:butt;stroke-linejoin:miter;stroke:rgb(0%,0%,0%);stroke-opacity:1;stroke-miterlimit:10;" d="M 9.539281 2.068844 L 15.976781 14.939937 M 18.043188 14.939937 L 24.480688 2.068844 " transform="matrix(1,0,0,-1,36.824,36.729)"/>
<path style="fill:none;stroke-width:0.79701;stroke-linecap:butt;stroke-linejoin:miter;stroke:rgb(0%,0%,0%);stroke-opacity:1;stroke-miterlimit:10;" d="M 15.976781 -14.938969 L 9.539281 -2.067875 M 7.468969 -2.067875 L 1.035375 -14.938969 " transform="matrix(1,0,0,-1,36.824,36.729)"/>
</g>
</svg>
