<?xml version="1.0" encoding="UTF-8"?>
<svg xmlns="http://www.w3.org/2000/svg" xmlns:xlink="http://www.w3.org/1999/xlink" width="96pt" height="92pt" viewBox="0 0 96 92" version="1.1">
<g id="surface1">
<path style=" stroke:none;fill-rule:nonzero;fill:rgb(0%,0%,0%);fill-opacity:0.8;" d="M 26.183594 89.171875 C 26.183594 88.003906 25.234375 87.054688 24.066406 87.054688 C 22.902344 87.054688 21.953125 88.003906 21.953125 89.171875 C 21.953125 90.335938 22.902344 91.285156 24.066406 91.285156 C 25.234375 91.285156 26.183594 90.335938 26.183594 89.171875 Z M 26.183594 89.171875 "/>
<path style=" stroke:none;fill-rule:nonzero;fill:rgb(0%,0%,0%);fill-opacity:0.8;" d="M 74.371094 89.171875 C 74.371094 88.003906 73.425781 87.054688 72.257813 87.054688 C 71.089844 87.054688 70.144531 88.003906 70.144531 89.171875 C 70.144531 90.335938 71.089844 91.285156 72.257813 91.285156 C 73.425781 91.285156 74.371094 90.335938 74.371094 89.171875 Z M 74.371094 89.171875 "/>
<path style=" stroke:none;fill-rule:nonzero;fill:rgb(0%,0%,0%);fill-opacity:0.8;" d="M 95.632813 46.648438 C 95.632813 45.484375 94.683594 44.535156 93.519531 44.535156 C 92.351563 44.535156 91.40625 45.484375 91.40625 46.648438 C 91.40625 47.816406 92.351563 48.761719 93.519531 48.761719 C 94.683594 48.761719 95.632813 47.816406 95.632813 46.648438 Z M 95.632813 46.648438 "/>
<path style=" stroke:none;fill-rule:nonzero;fill:rgb(0%,0%,0%);fill-opacity:0.8;" d="M 50.277344 2.710938 C 50.277344 1.546875 49.332031 0.597656 48.164063 0.597656 C 46.996094 0.597656 46.050781 1.546875 46.050781 2.710938 C 46.050781 3.878906 46.996094 4.824219 48.164063 4.824219 C 49.332031 4.824219 50.277344 3.878906 50.277344 2.710938 Z M 50.277344 2.710938 "/>
<path style=" stroke:none;fill-rule:nonzero;fill:rgb(0%,0%,0%);fill-opacity:0.8;" d="M 4.921875 46.648438 C 4.921875 45.484375 3.976563 44.535156 2.808594 44.535156 C 1.640625 44.535156 0.695313 45.484375 0.695313 46.648438 C 0.695313 47.816406 1.640625 48.761719 2.808594 48.761719 C 3.976563 48.761719 4.921875 47.816406 4.921875 46.648438 Z M 4.921875 46.648438 "/>
<path style=" stroke:none;fill-rule:nonzero;fill:rgb(0%,0%,0%);fill-opacity:0.8;" d="M 36.101563 74.996094 C 36.101563 73.828125 35.15625 72.882813 33.988281 72.882813 C 32.824219 72.882813 31.875 73.828125 31.875 74.996094 C 31.875 76.164063 32.824219 77.109375 33.988281 77.109375 C 35.15625 77.109375 36.101563 76.164063 36.101563 74.996094 Z M 36.101563 74.996094 "/>
<path style=" stroke:none;fill-rule:nonzero;fill:rgb(0%,0%,0%);fill-opacity:0.8;" d="M 64.449219 74.996094 C 64.449219 73.828125 63.503906 72.882813 62.335938 72.882813 C 61.167969 72.882813 60.222656 73.828125 60.222656 74.996094 C 60.222656 76.164063 61.167969 77.109375 62.335938 77.109375 C 63.503906 77.109375 64.449219 76.164063 64.449219 74.996094 Z M 64.449219 74.996094 "/>
<path style=" stroke:none;fill-rule:nonzero;fill:rgb(0%,0%,0%);fill-opacity:0.8;" d="M 78.625 46.648438 C 78.625 45.484375 77.675781 44.535156 76.511719 44.535156 C 75.34375 44.535156 74.394531 45.484375 74.394531 46.648438 C 74.394531 47.816406 75.34375 48.761719 76.511719 48.761719 C 77.675781 48.761719 78.625 47.816406 78.625 46.648438 Z M 78.625 46.648438 "/>
<path style=" stroke:none;fill-rule:nonzero;fill:rgb(0%,0%,0%);fill-opacity:0.8;" d="M 50.277344 18.304688 C 50.277344 17.136719 49.332031 16.191406 48.164063 16.191406 C 46.996094 16.191406 46.050781 17.136719 46.050781 18.304688 C 46.050781 19.46875 46.996094 20.417969 48.164063 20.417969 C 49.332031 20.417969 50.277344 19.46875 50.277344 18.304688 Z M 50.277344 18.304688 "/>
<path style=" stroke:none;fill-rule:nonzero;fill:rgb(0%,0%,0%);fill-opacity:0.8;" d="M 21.929688 46.648438 C 21.929688 45.484375 20.984375 44.535156 19.816406 44.535156 C 18.648438 44.535156 17.703125 45.484375 17.703125 46.648438 C 17.703125 47.816406 18.648438 48.761719 19.816406 48.761719 C 20.984375 48.761719 21.929688 47.816406 21.929688 46.648438 Z M 21.929688 46.648438 "/>
<path style=" stroke:none;fill-rule:nonzero;fill:rgb(0%,0%,0%);fill-opacity:0.8;" d="M 50.277344 74.996094 C 50.277344 73.828125 49.332031 72.882813 48.164063 72.882813 C 46.996094 72.882813 46.050781 73.828125 46.050781 74.996094 C 46.050781 76.164063 46.996094 77.109375 48.164063 77.109375 C 49.332031 77.109375 50.277344 76.164063 50.277344 74.996094 Z M 50.277344 74.996094 "/>
<path style=" stroke:none;fill-rule:nonzero;fill:rgb(0%,0%,0%);fill-opacity:0.8;" d="M 71.535156 60.824219 C 71.535156 59.65625 70.589844 58.710938 69.421875 58.710938 C 68.257813 58.710938 67.308594 59.65625 67.308594 60.824219 C 67.308594 61.992188 68.257813 62.9375 69.421875 62.9375 C 70.589844 62.9375 71.535156 61.992188 71.535156 60.824219 Z M 71.535156 60.824219 "/>
<path style=" stroke:none;fill-rule:nonzero;fill:rgb(0%,0%,0%);fill-opacity:0.8;" d="M 64.449219 32.476563 C 64.449219 31.308594 63.503906 30.363281 62.335938 30.363281 C 61.167969 30.363281 60.222656 31.308594 60.222656 32.476563 C 60.222656 33.644531 61.167969 34.589844 62.335938 34.589844 C 63.503906 34.589844 64.449219 33.644531 64.449219 32.476563 Z M 64.449219 32.476563 "/>
<path style=" stroke:none;fill-rule:nonzero;fill:rgb(0%,0%,0%);fill-opacity:0.8;" d="M 36.101563 32.476563 C 36.101563 31.308594 35.15625 30.363281 33.988281 30.363281 C 32.824219 30.363281 31.875 31.308594 31.875 32.476563 C 31.875 33.644531 32.824219 34.589844 33.988281 34.589844 C 35.15625 34.589844 36.101563 33.644531 36.101563 32.476563 Z M 36.101563 32.476563 "/>
<path style=" stroke:none;fill-rule:nonzero;fill:rgb(0%,0%,0%);fill-opacity:0.8;" d="M 29.015625 60.824219 C 29.015625 59.65625 28.070313 58.710938 26.902344 58.710938 C 25.734375 58.710938 24.789063 59.65625 24.789063 60.824219 C 24.789063 61.992188 25.734375 62.9375 26.902344 62.9375 C 28.070313 62.9375 29.015625 61.992188 29.015625 60.824219 Z M 29.015625 60.824219 "/>
<path style=" stroke:none;fill-rule:nonzero;fill:rgb(0%,0%,0%);fill-opacity:0.8;" d="M 50.277344 60.824219 C 50.277344 59.65625 49.332031 58.710938 48.164063 58.710938 C 46.996094 58.710938 46.050781 59.65625 46.050781 60.824219 C 46.050781 61.992188 46.996094 62.9375 48.164063 62.9375 C 49.332031 62.9375 50.277344 61.992188 50.277344 60.824219 Z M 50.277344 60.824219 "/>
<path style=" stroke:none;fill-rule:nonzero;fill:rgb(0%,0%,0%);fill-opacity:0.8;" d="M 61.613281 56.570313 C 61.613281 55.402344 60.667969 54.457031 59.5 54.457031 C 58.335938 54.457031 57.386719 55.402344 57.386719 56.570313 C 57.386719 57.738281 58.335938 58.683594 59.5 58.683594 C 60.667969 58.683594 61.613281 57.738281 61.613281 56.570313 Z M 61.613281 56.570313 "/>
<path style=" stroke:none;fill-rule:nonzero;fill:rgb(0%,0%,0%);fill-opacity:0.8;" d="M 57.363281 39.5625 C 57.363281 38.394531 56.417969 37.449219 55.25 37.449219 C 54.082031 37.449219 53.136719 38.394531 53.136719 39.5625 C 53.136719 40.730469 54.082031 41.675781 55.25 41.675781 C 56.417969 41.675781 57.363281 40.730469 57.363281 39.5625 Z M 57.363281 39.5625 "/>
<path style=" stroke:none;fill-rule:nonzero;fill:rgb(0%,0%,0%);fill-opacity:0.8;" d="M 43.191406 39.5625 C 43.191406 38.394531 42.242188 37.449219 41.078125 37.449219 C 39.910156 37.449219 38.960938 38.394531 38.960938 39.5625 C 38.960938 40.730469 39.910156 41.675781 41.078125 41.675781 C 42.242188 41.675781 43.191406 40.730469 43.191406 39.5625 Z M 43.191406 39.5625 "/>
<path style=" stroke:none;fill-rule:nonzero;fill:rgb(0%,0%,0%);fill-opacity:0.8;" d="M 38.9375 56.570313 C 38.9375 55.402344 37.992188 54.457031 36.824219 54.457031 C 35.65625 54.457031 34.710938 55.402344 34.710938 56.570313 C 34.710938 57.738281 35.65625 58.683594 36.824219 58.683594 C 37.992188 58.683594 38.9375 57.738281 38.9375 56.570313 Z M 38.9375 56.570313 "/>
<path style="fill:none;stroke-width:0.79701;stroke-linecap:butt;stroke-linejoin:miter;stroke:rgb(0%,0%,0%);stroke-opacity:1;stroke-miterlimit:10;" d="M -21.780187 -0.001875 L 21.782313 -0.001875 M 25.129969 2.068437 L 44.321375 40.45125 M 43.692469 44.130937 L 1.661219 84.849687 M -1.659094 84.849687 L -43.69425 44.130937 M -44.31925 40.45125 L -25.127844 2.068437 " transform="matrix(1,0,0,-1,48.163,89.17)"/>
<path style="fill:none;stroke-width:0.79701;stroke-linecap:butt;stroke-linejoin:miter;stroke:rgb(0%,0%,0%);stroke-opacity:1;stroke-miterlimit:10;" d="M -11.862219 14.173906 L -2.311437 14.173906 M 2.313563 14.173906 L 11.860438 14.173906 M 15.208094 16.240312 L 20.227625 26.279375 M 22.294031 30.416094 L 27.313563 40.45125 M 26.712 44.154375 L 15.809656 55.056719 M 12.536219 58.330156 L 1.633875 69.2325 M -1.635656 69.2325 L -12.538 58.330156 M -15.807531 55.056719 L -26.709875 44.154375 M -27.311437 40.45125 L -22.295812 30.416094 M -20.2255 26.279375 L -15.205969 16.240312 " transform="matrix(1,0,0,-1,48.163,89.17)"/>
<path style="fill:none;stroke-width:0.79701;stroke-linecap:butt;stroke-linejoin:miter;stroke:rgb(0%,0%,0%);stroke-opacity:1;stroke-miterlimit:10;" d="M -22.768469 1.892656 L -15.498937 12.279375 " transform="matrix(1,0,0,-1,48.163,89.17)"/>
<path style="fill:none;stroke-width:0.79701;stroke-linecap:butt;stroke-linejoin:miter;stroke:rgb(0%,0%,0%);stroke-opacity:1;stroke-miterlimit:10;" d="M 22.766688 1.892656 L 15.501063 12.279375 " transform="matrix(1,0,0,-1,48.163,89.17)"/>
<path style="fill:none;stroke-width:0.79701;stroke-linecap:butt;stroke-linejoin:miter;stroke:rgb(0%,0%,0%);stroke-opacity:1;stroke-miterlimit:10;" d="M 43.044031 42.521562 L 30.661219 42.521562 " transform="matrix(1,0,0,-1,48.163,89.17)"/>
<path style="fill:none;stroke-width:0.79701;stroke-linecap:butt;stroke-linejoin:miter;stroke:rgb(0%,0%,0%);stroke-opacity:1;stroke-miterlimit:10;" d="M 0.0010625 84.146562 L 0.0010625 73.177812 " transform="matrix(1,0,0,-1,48.163,89.17)"/>
<path style="fill:none;stroke-width:0.79701;stroke-linecap:butt;stroke-linejoin:miter;stroke:rgb(0%,0%,0%);stroke-opacity:1;stroke-miterlimit:10;" d="M -43.041906 42.521562 L -30.659094 42.521562 " transform="matrix(1,0,0,-1,48.163,89.17)"/>
<path style="fill:none;stroke-width:0.79701;stroke-linecap:butt;stroke-linejoin:miter;stroke:rgb(0%,0%,0%);stroke-opacity:1;stroke-miterlimit:10;" d="M 2.165125 29.158281 L 9.172938 31.787187 M 10.778406 34.841875 L 7.645594 47.361406 M 4.7745 49.6075 L -4.772375 49.6075 M -7.647375 47.361406 L -10.776281 34.841875 M -9.174719 31.787187 L -2.166906 29.158281 " transform="matrix(1,0,0,-1,48.163,89.17)"/>
<path style="fill:none;stroke-width:0.79701;stroke-linecap:butt;stroke-linejoin:miter;stroke:rgb(0%,0%,0%);stroke-opacity:1;stroke-miterlimit:10;" d="M 0.0010625 16.486406 L 0.0010625 26.033281 " transform="matrix(1,0,0,-1,48.163,89.17)"/>
<path style="fill:none;stroke-width:0.79701;stroke-linecap:butt;stroke-linejoin:miter;stroke:rgb(0%,0%,0%);stroke-opacity:1;stroke-miterlimit:10;" d="M 19.133875 29.255937 L 13.465906 31.689531 " transform="matrix(1,0,0,-1,48.163,89.17)"/>
<path style="fill:none;stroke-width:0.79701;stroke-linecap:butt;stroke-linejoin:miter;stroke:rgb(0%,0%,0%);stroke-opacity:1;stroke-miterlimit:10;" d="M 12.536219 55.056719 L 8.723719 51.240312 " transform="matrix(1,0,0,-1,48.163,89.17)"/>
<path style="fill:none;stroke-width:0.79701;stroke-linecap:butt;stroke-linejoin:miter;stroke:rgb(0%,0%,0%);stroke-opacity:1;stroke-miterlimit:10;" d="M -12.538 55.056719 L -8.721594 51.240312 " transform="matrix(1,0,0,-1,48.163,89.17)"/>
<path style="fill:none;stroke-width:0.79701;stroke-linecap:butt;stroke-linejoin:miter;stroke:rgb(0%,0%,0%);stroke-opacity:1;stroke-miterlimit:10;" d="M -19.135656 29.255937 L -13.463781 31.689531 " transform="matrix(1,0,0,-1,48.163,89.17)"/>
</g>
</svg>
