<?xml version="1.0" encoding="UTF-8"?>
<svg xmlns="http://www.w3.org/2000/svg" xmlns:xlink="http://www.w3.org/1999/xlink" width="65pt" height="45pt" viewBox="0 0 65 45" version="1.1">
<g id="surface1">
<path style=" stroke:none;fill-rule:nonzero;fill:rgb(0%,0%,0%);fill-opacity:0.8;" d="M 4.921875 42.398438 C 4.921875 41.230469 3.976563 40.285156 2.808594 40.285156 C 1.640625 40.285156 0.695313 41.230469 0.695313 42.398438 C 0.695313 43.566406 1.640625 44.511719 2.808594 44.511719 C 3.976563 44.511719 4.921875 43.566406 4.921875 42.398438 Z M 4.921875 42.398438 "/>
<path style=" stroke:none;fill-rule:nonzero;fill:rgb(0%,0%,0%);fill-opacity:0.8;" d="M 24.765625 42.398438 C 24.765625 41.230469 23.820313 40.285156 22.652344 40.285156 C 21.484375 40.285156 20.539063 41.230469 20.539063 42.398438 C 20.539063 43.566406 21.484375 44.511719 22.652344 44.511719 C 23.820313 44.511719 24.765625 43.566406 24.765625 42.398438 Z M 24.765625 42.398438 "/>
<path style=" stroke:none;fill-rule:nonzero;fill:rgb(0%,0%,0%);fill-opacity:0.8;" d="M 44.609375 42.398438 C 44.609375 41.230469 43.660156 40.285156 42.492188 40.285156 C 41.328125 40.285156 40.378906 41.230469 40.378906 42.398438 C 40.378906 43.566406 41.328125 44.511719 42.492188 44.511719 C 43.660156 44.511719 44.609375 43.566406 44.609375 42.398438 Z M 44.609375 42.398438 "/>
<path style=" stroke:none;fill-rule:nonzero;fill:rgb(0%,0%,0%);fill-opacity:0.8;" d="M 64.449219 42.398438 C 64.449219 41.230469 63.503906 40.285156 62.335938 40.285156 C 61.167969 40.285156 60.222656 41.230469 60.222656 42.398438 C 60.222656 43.566406 61.167969 44.511719 62.335938 44.511719 C 63.503906 44.511719 64.449219 43.566406 64.449219 42.398438 Z M 64.449219 42.398438 "/>
<path style=" stroke:none;fill-rule:nonzero;fill:rgb(0%,0%,0%);fill-opacity:0.8;" d="M 24.765625 22.554688 C 24.765625 21.386719 23.820313 20.441406 22.652344 20.441406 C 21.484375 20.441406 20.539063 21.386719 20.539063 22.554688 C 20.539063 23.722656 21.484375 24.667969 22.652344 24.667969 C 23.820313 24.667969 24.765625 23.722656 24.765625 22.554688 Z M 24.765625 22.554688 "/>
<path style=" stroke:none;fill-rule:nonzero;fill:rgb(0%,0%,0%);fill-opacity:0.8;" d="M 24.765625 2.714844 C 24.765625 1.546875 23.820313 0.597656 22.652344 0.597656 C 21.484375 0.597656 20.539063 1.546875 20.539063 2.714844 C 20.539063 3.878906 21.484375 4.828125 22.652344 4.828125 C 23.820313 4.828125 24.765625 3.878906 24.765625 2.714844 Z M 24.765625 2.714844 "/>
<path style="fill:none;stroke-width:0.79701;stroke-linecap:butt;stroke-linejoin:miter;stroke:rgb(0%,0%,0%);stroke-opacity:1;stroke-miterlimit:10;" d="M 22.155094 19.842563 L 37.373844 19.842563 " transform="matrix(1,0,0,-1,-17.034,62.241)"/>
<path style="fill:none;stroke-width:0.79701;stroke-linecap:butt;stroke-linejoin:miter;stroke:rgb(0%,0%,0%);stroke-opacity:1;stroke-miterlimit:10;" d="M 61.842594 19.842563 L 77.061344 19.842563 " transform="matrix(1,0,0,-1,-17.034,62.241)"/>
<path style="fill:none;stroke-width:0.79701;stroke-linecap:butt;stroke-linejoin:miter;stroke:rgb(0%,0%,0%);stroke-opacity:1;stroke-miterlimit:10;" d="M 39.686344 22.155063 L 39.686344 37.373813 M 39.686344 41.998813 L 39.686344 57.217563 " transform="matrix(1,0,0,-1,-17.034,62.241)"/>
</g>
</svg>
