<?xml version="1.0" encoding="UTF-8"?>
<svg xmlns="http://www.w3.org/2000/svg" xmlns:xlink="http://www.w3.org/1999/xlink" width="73pt" height="56pt" viewBox="0 0 73 56" version="1.1">
<g id="surface1">
<path style=" stroke:none;fill-rule:nonzero;fill:rgb(0%,0%,0%);fill-opacity:0.8;" d="M 21.929688 53.738281 C 21.929688 52.570313 20.984375 51.625 19.816406 51.625 C 18.648438 51.625 17.703125 52.570313 17.703125 53.738281 C 17.703125 54.90625 18.648438 55.851563 19.816406 55.851563 C 20.984375 55.851563 21.929688 54.90625 21.929688 53.738281 Z M 21.929688 53.738281 "/>
<path style=" stroke:none;fill-rule:nonzero;fill:rgb(0%,0%,0%);fill-opacity:0.8;" d="M 55.945313 53.738281 C 55.945313 52.570313 55 51.625 53.832031 51.625 C 52.664063 51.625 51.71875 52.570313 51.71875 53.738281 C 51.71875 54.90625 52.664063 55.851563 53.832031 55.851563 C 55 55.851563 55.945313 54.90625 55.945313 53.738281 Z M 55.945313 53.738281 "/>
<path style=" stroke:none;fill-rule:nonzero;fill:rgb(0%,0%,0%);fill-opacity:0.8;" d="M 72.953125 28.226563 C 72.953125 27.058594 72.007813 26.113281 70.839844 26.113281 C 69.671875 26.113281 68.726563 27.058594 68.726563 28.226563 C 68.726563 29.394531 69.671875 30.339844 70.839844 30.339844 C 72.007813 30.339844 72.953125 29.394531 72.953125 28.226563 Z M 72.953125 28.226563 "/>
<path style=" stroke:none;fill-rule:nonzero;fill:rgb(0%,0%,0%);fill-opacity:0.8;" d="M 55.945313 2.714844 C 55.945313 1.546875 55 0.601563 53.832031 0.601563 C 52.664063 0.601563 51.71875 1.546875 51.71875 2.714844 C 51.71875 3.878906 52.664063 4.828125 53.832031 4.828125 C 55 4.828125 55.945313 3.878906 55.945313 2.714844 Z M 55.945313 2.714844 "/>
<path style=" stroke:none;fill-rule:nonzero;fill:rgb(0%,0%,0%);fill-opacity:0.8;" d="M 21.929688 2.714844 C 21.929688 1.546875 20.984375 0.601563 19.816406 0.601563 C 18.648438 0.601563 17.703125 1.546875 17.703125 2.714844 C 17.703125 3.878906 18.648438 4.828125 19.816406 4.828125 C 20.984375 4.828125 21.929688 3.878906 21.929688 2.714844 Z M 21.929688 2.714844 "/>
<path style=" stroke:none;fill-rule:nonzero;fill:rgb(0%,0%,0%);fill-opacity:0.8;" d="M 4.921875 28.226563 C 4.921875 27.058594 3.976563 26.113281 2.808594 26.113281 C 1.640625 26.113281 0.695313 27.058594 0.695313 28.226563 C 0.695313 29.394531 1.640625 30.339844 2.808594 30.339844 C 3.976563 30.339844 4.921875 29.394531 4.921875 28.226563 Z M 4.921875 28.226563 "/>
<path style="fill:none;stroke-width:0.79701;stroke-linecap:butt;stroke-linejoin:miter;stroke:rgb(0%,0%,0%);stroke-opacity:1;stroke-miterlimit:10;" d="M -14.695094 -0.00028125 L 14.695531 -0.00028125 M 18.293188 1.9255 L 32.734594 23.589563 M 32.734594 27.437219 L 18.293188 49.105188 M 14.695531 51.027063 L -14.695094 51.027063 M -18.29275 49.105188 L -32.734156 27.437219 M -32.734156 23.589563 L -18.29275 1.9255 " transform="matrix(1,0,0,-1,36.824,53.738)"/>
<path style="fill:none;stroke-width:0.79701;stroke-linecap:butt;stroke-linejoin:miter;stroke:rgb(0%,0%,0%);stroke-opacity:1;stroke-miterlimit:10;" d="M -15.726344 1.9255 L 15.726781 49.105188 " transform="matrix(1,0,0,-1,36.824,53.738)"/>
<path style="fill:none;stroke-width:0.79701;stroke-linecap:butt;stroke-linejoin:miter;stroke:rgb(0%,0%,0%);stroke-opacity:1;stroke-miterlimit:10;" d="M 15.726781 1.9255 L -15.726344 49.105188 " transform="matrix(1,0,0,-1,36.824,53.738)"/>
</g>
</svg>
