<?xml version="1.0" encoding="UTF-8"?>
<svg xmlns="http://www.w3.org/2000/svg" xmlns:xlink="http://www.w3.org/1999/xlink" width="39pt" height="39pt" viewBox="0 0 39 39" version="1.1">
<g id="surface1">
<path style=" stroke:none;fill-rule:nonzero;fill:rgb(0%,0%,0%);fill-opacity:0.8;" d="M 38.9375 2.710938 C 38.9375 1.546875 37.992188 0.597656 36.824219 0.597656 C 35.65625 0.597656 34.710938 1.546875 34.710938 2.710938 C 34.710938 3.878906 35.65625 4.824219 36.824219 4.824219 C 37.992188 4.824219 38.9375 3.878906 38.9375 2.710938 Z M 38.9375 2.710938 "/>
<path style=" stroke:none;fill-rule:nonzero;fill:rgb(0%,0%,0%);fill-opacity:0.8;" d="M 4.921875 36.730469 C 4.921875 35.5625 3.976563 34.617188 2.808594 34.617188 C 1.640625 34.617188 0.695313 35.5625 0.695313 36.730469 C 0.695313 37.894531 1.640625 38.84375 2.808594 38.84375 C 3.976563 38.84375 4.921875 37.894531 4.921875 36.730469 Z M 4.921875 36.730469 "/>
<path style=" stroke:none;fill-rule:nonzero;fill:rgb(0%,0%,0%);fill-opacity:0.8;" d="M 21.929688 2.710938 C 21.929688 1.546875 20.984375 0.597656 19.816406 0.597656 C 18.648438 0.597656 17.703125 1.546875 17.703125 2.710938 C 17.703125 3.878906 18.648438 4.824219 19.816406 4.824219 C 20.984375 4.824219 21.929688 3.878906 21.929688 2.710938 Z M 21.929688 2.710938 "/>
<path style=" stroke:none;fill-rule:nonzero;fill:rgb(0%,0%,0%);fill-opacity:0.8;" d="M 21.929688 36.730469 C 21.929688 35.5625 20.984375 34.617188 19.816406 34.617188 C 18.648438 34.617188 17.703125 35.5625 17.703125 36.730469 C 17.703125 37.894531 18.648438 38.84375 19.816406 38.84375 C 20.984375 38.84375 21.929688 37.894531 21.929688 36.730469 Z M 21.929688 36.730469 "/>
<path style=" stroke:none;fill-rule:nonzero;fill:rgb(0%,0%,0%);fill-opacity:0.8;" d="M 4.921875 2.710938 C 4.921875 1.546875 3.976563 0.597656 2.808594 0.597656 C 1.640625 0.597656 0.695313 1.546875 0.695313 2.710938 C 0.695313 3.878906 1.640625 4.824219 2.808594 4.824219 C 3.976563 4.824219 4.921875 3.878906 4.921875 2.710938 Z M 4.921875 2.710938 "/>
<path style=" stroke:none;fill-rule:nonzero;fill:rgb(0%,0%,0%);fill-opacity:0.8;" d="M 38.9375 36.730469 C 38.9375 35.5625 37.992188 34.617188 36.824219 34.617188 C 35.65625 34.617188 34.710938 35.5625 34.710938 36.730469 C 34.710938 37.894531 35.65625 38.84375 36.824219 38.84375 C 37.992188 38.84375 38.9375 37.894531 38.9375 36.730469 Z M 38.9375 36.730469 "/>
<path style="fill:none;stroke-width:0.79701;stroke-linecap:butt;stroke-linejoin:miter;stroke:rgb(0%,0%,0%);stroke-opacity:1;stroke-miterlimit:10;" d="M 15.375406 32.381344 L -15.374594 1.63525 M -15.976156 2.068844 L -1.03475 31.951656 M 0.00040625 31.705562 L 0.00040625 2.311031 M -1.03475 2.068844 L -15.976156 31.951656 M -15.374594 32.381344 L 15.375406 1.63525 " transform="matrix(1,0,0,-1,19.816,36.729)"/>
</g>
</svg>
