<?xml version="1.0" encoding="UTF-8"?>
<svg xmlns="http://www.w3.org/2000/svg" xmlns:xlink="http://www.w3.org/1999/xlink" width="65pt" height="65pt" viewBox="0 0 65 65" version="1.1">
<g id="surface1">
<path style=" stroke:none;fill-rule:nonzero;fill:rgb(0%,0%,0%);fill-opacity:0.8;" d="M 4.921875 62.242188 C 4.921875 61.074219 3.976563 60.128906 2.808594 60.128906 C 1.640625 60.128906 0.695313 61.074219 0.695313 62.242188 C 0.695313 63.410156 1.640625 64.355469 2.808594 64.355469 C 3.976563 64.355469 4.921875 63.410156 4.921875 62.242188 Z M 4.921875 62.242188 "/>
<path style=" stroke:none;fill-rule:nonzero;fill:rgb(0%,0%,0%);fill-opacity:0.8;" d="M 64.449219 62.242188 C 64.449219 61.074219 63.503906 60.128906 62.335938 60.128906 C 61.167969 60.128906 60.222656 61.074219 60.222656 62.242188 C 60.222656 63.410156 61.167969 64.355469 62.335938 64.355469 C 63.503906 64.355469 64.449219 63.410156 64.449219 62.242188 Z M 64.449219 62.242188 "/>
<path style=" stroke:none;fill-rule:nonzero;fill:rgb(0%,0%,0%);fill-opacity:0.8;" d="M 64.449219 2.714844 C 64.449219 1.546875 63.503906 0.597656 62.335938 0.597656 C 61.167969 0.597656 60.222656 1.546875 60.222656 2.714844 C 60.222656 3.878906 61.167969 4.828125 62.335938 4.828125 C 63.503906 4.828125 64.449219 3.878906 64.449219 2.714844 Z M 64.449219 2.714844 "/>
<path style=" stroke:none;fill-rule:nonzero;fill:rgb(0%,0%,0%);fill-opacity:0.8;" d="M 4.921875 2.714844 C 4.921875 1.546875 3.976563 0.597656 2.808594 0.597656 C 1.640625 0.597656 0.695313 1.546875 0.695313 2.714844 C 0.695313 3.878906 1.640625 4.828125 2.808594 4.828125 C 3.976563 4.828125 4.921875 3.878906 4.921875 2.714844 Z M 4.921875 2.714844 "/>
<path style=" stroke:none;fill-rule:nonzero;fill:rgb(0%,0%,0%);fill-opacity:0.8;" d="M 24.765625 42.398438 C 24.765625 41.230469 23.816406 40.285156 22.652344 40.285156 C 21.484375 40.285156 20.539063 41.230469 20.539063 42.398438 C 20.539063 43.566406 21.484375 44.511719 22.652344 44.511719 C 23.816406 44.511719 24.765625 43.566406 24.765625 42.398438 Z M 24.765625 42.398438 "/>
<path style=" stroke:none;fill-rule:nonzero;fill:rgb(0%,0%,0%);fill-opacity:0.8;" d="M 44.605469 42.398438 C 44.605469 41.230469 43.660156 40.285156 42.492188 40.285156 C 41.324219 40.285156 40.378906 41.230469 40.378906 42.398438 C 40.378906 43.566406 41.324219 44.511719 42.492188 44.511719 C 43.660156 44.511719 44.605469 43.566406 44.605469 42.398438 Z M 44.605469 42.398438 "/>
<path style=" stroke:none;fill-rule:nonzero;fill:rgb(0%,0%,0%);fill-opacity:0.8;" d="M 44.605469 22.554688 C 44.605469 21.386719 43.660156 20.441406 42.492188 20.441406 C 41.324219 20.441406 40.378906 21.386719 40.378906 22.554688 C 40.378906 23.722656 41.324219 24.667969 42.492188 24.667969 C 43.660156 24.667969 44.605469 23.722656 44.605469 22.554688 Z M 44.605469 22.554688 "/>
<path style=" stroke:none;fill-rule:nonzero;fill:rgb(0%,0%,0%);fill-opacity:0.8;" d="M 24.765625 22.554688 C 24.765625 21.386719 23.816406 20.441406 22.652344 20.441406 C 21.484375 20.441406 20.539063 21.386719 20.539063 22.554688 C 20.539063 23.722656 21.484375 24.667969 22.652344 24.667969 C 23.816406 24.667969 24.765625 23.722656 24.765625 22.554688 Z M 24.765625 22.554688 "/>
<path style="fill:none;stroke-width:0.79701;stroke-linecap:butt;stroke-linejoin:miter;stroke:rgb(0%,0%,0%);stroke-opacity:1;stroke-miterlimit:10;" d="M 2.313094 -0.0011875 L 57.215438 -0.0011875 M 59.527938 2.311312 L 59.527938 57.217563 M 57.215438 59.530063 L 2.313094 59.530063 M 0.00059375 57.217563 L 0.00059375 2.311312 " transform="matrix(1,0,0,-1,2.808,62.241)"/>
<path style="fill:none;stroke-width:0.79701;stroke-linecap:butt;stroke-linejoin:miter;stroke:rgb(0%,0%,0%);stroke-opacity:1;stroke-miterlimit:10;" d="M 22.156844 19.842563 L 37.371688 19.842563 M 39.688094 22.155063 L 39.684188 37.373813 M 37.371688 39.686313 L 22.156844 39.686313 M 19.844344 37.373813 L 19.844344 22.155063 " transform="matrix(1,0,0,-1,2.808,62.241)"/>
<path style="fill:none;stroke-width:0.79701;stroke-linecap:butt;stroke-linejoin:miter;stroke:rgb(0%,0%,0%);stroke-opacity:1;stroke-miterlimit:10;" d="M 1.633406 1.635531 L 18.207625 18.205844 " transform="matrix(1,0,0,-1,2.808,62.241)"/>
<path style="fill:none;stroke-width:0.79701;stroke-linecap:butt;stroke-linejoin:miter;stroke:rgb(0%,0%,0%);stroke-opacity:1;stroke-miterlimit:10;" d="M 57.895125 1.635531 L 41.320906 18.205844 " transform="matrix(1,0,0,-1,2.808,62.241)"/>
<path style="fill:none;stroke-width:0.79701;stroke-linecap:butt;stroke-linejoin:miter;stroke:rgb(0%,0%,0%);stroke-opacity:1;stroke-miterlimit:10;" d="M 57.895125 57.893344 L 41.320906 41.323031 " transform="matrix(1,0,0,-1,2.808,62.241)"/>
<path style="fill:none;stroke-width:0.79701;stroke-linecap:butt;stroke-linejoin:miter;stroke:rgb(0%,0%,0%);stroke-opacity:1;stroke-miterlimit:10;" d="M 1.637313 57.893344 L 18.207625 41.323031 " transform="matrix(1,0,0,-1,2.808,62.241)"/>
</g>
</svg>
