<?xml version="1.0" encoding="UTF-8"?>
<svg xmlns="http://www.w3.org/2000/svg" xmlns:xlink="http://www.w3.org/1999/xlink" width="39pt" height="56pt" viewBox="0 0 39 56" version="1.1">
<g id="surface1">
<path style=" stroke:none;fill-rule:nonzero;fill:rgb(0%,0%,0%);fill-opacity:0.8;" d="M 4.921875 53.738281 C 4.921875 52.570313 3.976563 51.625 2.808594 51.625 C 1.640625 51.625 0.695313 52.570313 0.695313 53.738281 C 0.695313 54.90625 1.640625 55.851563 2.808594 55.851563 C 3.976563 55.851563 4.921875 54.90625 4.921875 53.738281 Z M 4.921875 53.738281 "/>
<path style=" stroke:none;fill-rule:nonzero;fill:rgb(0%,0%,0%);fill-opacity:0.8;" d="M 4.921875 36.730469 C 4.921875 35.5625 3.976563 34.617188 2.808594 34.617188 C 1.640625 34.617188 0.695313 35.5625 0.695313 36.730469 C 0.695313 37.898438 1.640625 38.84375 2.808594 38.84375 C 3.976563 38.84375 4.921875 37.898438 4.921875 36.730469 Z M 4.921875 36.730469 "/>
<path style=" stroke:none;fill-rule:nonzero;fill:rgb(0%,0%,0%);fill-opacity:0.8;" d="M 4.921875 19.722656 C 4.921875 18.554688 3.976563 17.609375 2.808594 17.609375 C 1.640625 17.609375 0.695313 18.554688 0.695313 19.722656 C 0.695313 20.890625 1.640625 21.835938 2.808594 21.835938 C 3.976563 21.835938 4.921875 20.890625 4.921875 19.722656 Z M 4.921875 19.722656 "/>
<path style=" stroke:none;fill-rule:nonzero;fill:rgb(0%,0%,0%);fill-opacity:0.8;" d="M 4.921875 2.714844 C 4.921875 1.546875 3.976563 0.601563 2.808594 0.601563 C 1.640625 0.601563 0.695313 1.546875 0.695313 2.714844 C 0.695313 3.878906 1.640625 4.828125 2.808594 4.828125 C 3.976563 4.828125 4.921875 3.878906 4.921875 2.714844 Z M 4.921875 2.714844 "/>
<path style=" stroke:none;fill-rule:nonzero;fill:rgb(0%,0%,0%);fill-opacity:0.8;" d="M 38.9375 53.738281 C 38.9375 52.570313 37.992188 51.625 36.824219 51.625 C 35.65625 51.625 34.710938 52.570313 34.710938 53.738281 C 34.710938 54.90625 35.65625 55.851563 36.824219 55.851563 C 37.992188 55.851563 38.9375 54.90625 38.9375 53.738281 Z M 38.9375 53.738281 "/>
<path style=" stroke:none;fill-rule:nonzero;fill:rgb(0%,0%,0%);fill-opacity:0.8;" d="M 38.9375 36.730469 C 38.9375 35.5625 37.992188 34.617188 36.824219 34.617188 C 35.65625 34.617188 34.710938 35.5625 34.710938 36.730469 C 34.710938 37.898438 35.65625 38.84375 36.824219 38.84375 C 37.992188 38.84375 38.9375 37.898438 38.9375 36.730469 Z M 38.9375 36.730469 "/>
<path style=" stroke:none;fill-rule:nonzero;fill:rgb(0%,0%,0%);fill-opacity:0.8;" d="M 38.9375 19.722656 C 38.9375 18.554688 37.992188 17.609375 36.824219 17.609375 C 35.65625 17.609375 34.710938 18.554688 34.710938 19.722656 C 34.710938 20.890625 35.65625 21.835938 36.824219 21.835938 C 37.992188 21.835938 38.9375 20.890625 38.9375 19.722656 Z M 38.9375 19.722656 "/>
<path style=" stroke:none;fill-rule:nonzero;fill:rgb(0%,0%,0%);fill-opacity:0.8;" d="M 38.9375 2.714844 C 38.9375 1.546875 37.992188 0.601563 36.824219 0.601563 C 35.65625 0.601563 34.710938 1.546875 34.710938 2.714844 C 34.710938 3.878906 35.65625 4.828125 36.824219 4.828125 C 37.992188 4.828125 38.9375 3.878906 38.9375 2.714844 Z M 38.9375 2.714844 "/>
<path style="fill:none;stroke-width:0.79701;stroke-linecap:butt;stroke-linejoin:miter;stroke:rgb(0%,0%,0%);stroke-opacity:1;stroke-miterlimit:10;" d="M 0.00059375 2.312219 L 0.00059375 14.695031 M 0.00059375 19.323938 L 0.00059375 31.70675 M 0.00059375 36.33175 L 0.00059375 48.714563 " transform="matrix(1,0,0,-1,2.808,53.738)"/>
<path style="fill:none;stroke-width:0.79701;stroke-linecap:butt;stroke-linejoin:miter;stroke:rgb(0%,0%,0%);stroke-opacity:1;stroke-miterlimit:10;" d="M 34.020125 2.312219 L 34.020125 14.695031 M 34.020125 19.323938 L 34.020125 31.70675 M 34.020125 36.33175 L 34.020125 48.714563 " transform="matrix(1,0,0,-1,2.808,53.738)"/>
<path style="fill:none;stroke-width:0.79701;stroke-linecap:butt;stroke-linejoin:miter;stroke:rgb(0%,0%,0%);stroke-opacity:1;stroke-miterlimit:10;" d="M 2.067 18.042688 L 31.949813 32.984094 " transform="matrix(1,0,0,-1,2.808,53.738)"/>
</g>
</svg>
