<?xml version="1.0" encoding="UTF-8"?>
<svg xmlns="http://www.w3.org/2000/svg" xmlns:xlink="http://www.w3.org/1999/xlink" width="90pt" height="90pt" viewBox="0 0 90 90" version="1.1">
<g id="surface1">
<path style=" stroke:none;fill-rule:nonzero;fill:rgb(0%,0%,0%);fill-opacity:0.8;" d="M 61.613281 45.234375 C 61.613281 44.066406 60.667969 43.121094 59.5 43.121094 C 58.332031 43.121094 57.386719 44.066406 57.386719 45.234375 C 57.386719 46.398438 58.332031 47.347656 59.5 47.347656 C 60.667969 47.347656 61.613281 46.398438 61.613281 45.234375 Z M 61.613281 45.234375 "/>
<path style=" stroke:none;fill-rule:nonzero;fill:rgb(0%,0%,0%);fill-opacity:0.8;" d="M 89.960938 45.234375 C 89.960938 44.066406 89.015625 43.121094 87.847656 43.121094 C 86.679688 43.121094 85.734375 44.066406 85.734375 45.234375 C 85.734375 46.398438 86.679688 47.347656 87.847656 47.347656 C 89.015625 47.347656 89.960938 46.398438 89.960938 45.234375 Z M 89.960938 45.234375 "/>
<path style=" stroke:none;fill-rule:nonzero;fill:rgb(0%,0%,0%);fill-opacity:0.8;" d="M 61.613281 2.710938 C 61.613281 1.546875 60.667969 0.597656 59.5 0.597656 C 58.332031 0.597656 57.386719 1.546875 57.386719 2.710938 C 57.386719 3.878906 58.332031 4.828125 59.5 4.828125 C 60.667969 4.828125 61.613281 3.878906 61.613281 2.710938 Z M 61.613281 2.710938 "/>
<path style=" stroke:none;fill-rule:nonzero;fill:rgb(0%,0%,0%);fill-opacity:0.8;" d="M 33.269531 45.234375 C 33.269531 44.066406 32.320313 43.121094 31.152344 43.121094 C 29.988281 43.121094 29.039063 44.066406 29.039063 45.234375 C 29.039063 46.398438 29.988281 47.347656 31.152344 47.347656 C 32.320313 47.347656 33.269531 46.398438 33.269531 45.234375 Z M 33.269531 45.234375 "/>
<path style=" stroke:none;fill-rule:nonzero;fill:rgb(0%,0%,0%);fill-opacity:0.8;" d="M 61.613281 87.753906 C 61.613281 86.585938 60.667969 85.640625 59.5 85.640625 C 58.332031 85.640625 57.386719 86.585938 57.386719 87.753906 C 57.386719 88.921875 58.332031 89.867188 59.5 89.867188 C 60.667969 89.867188 61.613281 88.921875 61.613281 87.753906 Z M 61.613281 87.753906 "/>
<path style=" stroke:none;fill-rule:nonzero;fill:rgb(0%,0%,0%);fill-opacity:0.8;" d="M 89.960938 16.886719 C 89.960938 15.71875 89.015625 14.773438 87.847656 14.773438 C 86.679688 14.773438 85.734375 15.71875 85.734375 16.886719 C 85.734375 18.054688 86.679688 19 87.847656 19 C 89.015625 19 89.960938 18.054688 89.960938 16.886719 Z M 89.960938 16.886719 "/>
<path style=" stroke:none;fill-rule:nonzero;fill:rgb(0%,0%,0%);fill-opacity:0.8;" d="M 33.269531 2.710938 C 33.269531 1.546875 32.320313 0.597656 31.152344 0.597656 C 29.988281 0.597656 29.039063 1.546875 29.039063 2.710938 C 29.039063 3.878906 29.988281 4.828125 31.152344 4.828125 C 32.320313 4.828125 33.269531 3.878906 33.269531 2.710938 Z M 33.269531 2.710938 "/>
<path style=" stroke:none;fill-rule:nonzero;fill:rgb(0%,0%,0%);fill-opacity:0.8;" d="M 33.269531 87.753906 C 33.269531 86.585938 32.320313 85.640625 31.152344 85.640625 C 29.988281 85.640625 29.039063 86.585938 29.039063 87.753906 C 29.039063 88.921875 29.988281 89.867188 31.152344 89.867188 C 32.320313 89.867188 33.269531 88.921875 33.269531 87.753906 Z M 33.269531 87.753906 "/>
<path style=" stroke:none;fill-rule:nonzero;fill:rgb(0%,0%,0%);fill-opacity:0.8;" d="M 89.960938 73.578125 C 89.960938 72.414063 89.015625 71.464844 87.847656 71.464844 C 86.679688 71.464844 85.734375 72.414063 85.734375 73.578125 C 85.734375 74.746094 86.679688 75.691406 87.847656 75.691406 C 89.015625 75.691406 89.960938 74.746094 89.960938 73.578125 Z M 89.960938 73.578125 "/>
<path style=" stroke:none;fill-rule:nonzero;fill:rgb(0%,0%,0%);fill-opacity:0.8;" d="M 4.921875 45.234375 C 4.921875 44.066406 3.976563 43.121094 2.808594 43.121094 C 1.640625 43.121094 0.695313 44.066406 0.695313 45.234375 C 0.695313 46.398438 1.640625 47.347656 2.808594 47.347656 C 3.976563 47.347656 4.921875 46.398438 4.921875 45.234375 Z M 4.921875 45.234375 "/>
<path style="fill:none;stroke-width:0.79701;stroke-linecap:butt;stroke-linejoin:miter;stroke:rgb(0%,0%,0%);stroke-opacity:1;stroke-miterlimit:10;" d="M 2.3115 -0.001375 L 26.034156 -0.001375 M 27.065406 1.924406 L 1.284156 40.596281 M -1.28225 40.596281 L -27.0635 1.924406 M -27.0635 -1.92325 L -1.28225 -40.595125 M 0.858375 -40.372469 L 27.487281 26.197844 M 26.104469 28.908781 L -26.102563 41.959563 M -29.629906 40.596281 L -55.411156 1.924406 M -55.411156 -1.92325 L -29.629906 -40.595125 M -26.102563 -41.958406 L 26.104469 -28.907625 M 28.346656 -26.032625 L 28.346656 -2.313875 M 28.346656 2.311125 L 28.346656 26.033781 M 26.28025 29.381438 L 2.069312 41.486906 M -0.731469 40.32675 L -27.614281 -40.325594 M -28.348656 -40.208406 L -28.348656 -2.313875 M -26.278344 -1.032625 L 26.28025 -27.313875 M 26.709937 -26.712312 L 1.635719 -1.634187 " transform="matrix(1,0,0,-1,59.501,45.233)"/>
<path style="fill:none;stroke-width:0.79701;stroke-linecap:butt;stroke-linejoin:miter;stroke:rgb(0%,0%,0%);stroke-opacity:1;stroke-miterlimit:10;" d="M -0.001 -40.208406 L -0.001 -2.313875 M -1.28225 1.924406 L -27.0635 40.596281 M -27.614281 40.32675 L -0.731469 -40.325594 M -1.848656 -41.134187 L -54.84475 -1.388094 M -54.379906 -0.001375 L -30.661156 -0.001375 " transform="matrix(1,0,0,-1,59.501,45.233)"/>
<path style="fill:none;stroke-width:0.79701;stroke-linecap:butt;stroke-linejoin:miter;stroke:rgb(0%,0%,0%);stroke-opacity:1;stroke-miterlimit:10;" d="M -54.501 0.733 L 26.151344 27.615813 " transform="matrix(1,0,0,-1,59.501,45.233)"/>
<path style="fill:none;stroke-width:0.79701;stroke-linecap:butt;stroke-linejoin:miter;stroke:rgb(0%,0%,0%);stroke-opacity:1;stroke-miterlimit:10;" d="M -1.28225 -1.92325 L -27.0635 -40.595125 " transform="matrix(1,0,0,-1,59.501,45.233)"/>
<path style="fill:none;stroke-width:0.79701;stroke-linecap:butt;stroke-linejoin:miter;stroke:rgb(0%,0%,0%);stroke-opacity:1;stroke-miterlimit:10;" d="M 26.495094 1.38925 L -26.497094 41.131438 " transform="matrix(1,0,0,-1,59.501,45.233)"/>
<path style="fill:none;stroke-width:0.79701;stroke-linecap:butt;stroke-linejoin:miter;stroke:rgb(0%,0%,0%);stroke-opacity:1;stroke-miterlimit:10;" d="M 0.858375 40.373625 L 27.487281 -26.200594 " transform="matrix(1,0,0,-1,59.501,45.233)"/>
</g>
</svg>
