<?xml version="1.0" encoding="UTF-8"?>
<svg xmlns="http://www.w3.org/2000/svg" xmlns:xlink="http://www.w3.org/1999/xlink" width="98pt" height="83pt" viewBox="0 0 98 83" version="1.1">
<g id="surface1">
<path style=" stroke:none;fill-rule:nonzero;fill:rgb(0%,0%,0%);fill-opacity:1;" d="M 15.503906 80.8125 C 15.503906 79.644531 14.558594 78.699219 13.390625 78.699219 C 12.226563 78.699219 11.277344 79.644531 11.277344 80.8125 C 11.277344 81.980469 12.226563 82.925781 13.390625 82.925781 C 14.558594 82.925781 15.503906 81.980469 15.503906 80.8125 Z M 15.503906 80.8125 "/>
<path style=" stroke:none;fill-rule:nonzero;fill:rgb(0%,0%,0%);fill-opacity:1;" d="M 50.9375 80.8125 C 50.9375 79.644531 49.992188 78.699219 48.824219 78.699219 C 47.660156 78.699219 46.710938 79.644531 46.710938 80.8125 C 46.710938 81.980469 47.660156 82.925781 48.824219 82.925781 C 49.992188 82.925781 50.9375 81.980469 50.9375 80.8125 Z M 50.9375 80.8125 "/>
<path style=" stroke:none;fill-rule:nonzero;fill:rgb(0%,0%,0%);fill-opacity:1;" d="M 86.371094 80.8125 C 86.371094 79.644531 85.425781 78.699219 84.257813 78.699219 C 83.09375 78.699219 82.144531 79.644531 82.144531 80.8125 C 82.144531 81.980469 83.09375 82.925781 84.257813 82.925781 C 85.425781 82.925781 86.371094 81.980469 86.371094 80.8125 Z M 86.371094 80.8125 "/>
<path style=" stroke:none;fill-rule:nonzero;fill:rgb(0%,0%,0%);fill-opacity:1;" d="M 72.199219 52.464844 C 72.199219 51.296875 71.253906 50.351563 70.085938 50.351563 C 68.917969 50.351563 67.972656 51.296875 67.972656 52.464844 C 67.972656 53.632813 68.917969 54.578125 70.085938 54.578125 C 71.253906 54.578125 72.199219 53.632813 72.199219 52.464844 Z M 72.199219 52.464844 "/>
<path style=" stroke:none;fill-rule:nonzero;fill:rgb(0%,0%,0%);fill-opacity:1;" d="M 29.679688 52.464844 C 29.679688 51.296875 28.734375 50.351563 27.566406 50.351563 C 26.398438 50.351563 25.453125 51.296875 25.453125 52.464844 C 25.453125 53.632813 26.398438 54.578125 27.566406 54.578125 C 28.734375 54.578125 29.679688 53.632813 29.679688 52.464844 Z M 29.679688 52.464844 "/>
<path style=" stroke:none;fill-rule:nonzero;fill:rgb(0%,0%,0%);fill-opacity:1;" d="M 50.9375 2.859375 C 50.9375 1.691406 49.992188 0.746094 48.824219 0.746094 C 47.660156 0.746094 46.710938 1.691406 46.710938 2.859375 C 46.710938 4.027344 47.660156 4.972656 48.824219 4.972656 C 49.992188 4.972656 50.9375 4.027344 50.9375 2.859375 Z M 50.9375 2.859375 "/>
<path style="fill:none;stroke-width:0.79701;stroke-linecap:butt;stroke-linejoin:miter;stroke:rgb(0%,0%,100%);stroke-opacity:1;stroke-dasharray:2.98883,2.98883;stroke-miterlimit:10;" d="M 15.206781 16.239906 L 27.31225 40.450844 " transform="matrix(1,0,0,-1,-0.781,94.986)"/>
<path style="fill:none;stroke-width:0.79701;stroke-linecap:butt;stroke-linejoin:miter;stroke:rgb(0%,0%,100%);stroke-opacity:1;stroke-dasharray:2.98883,2.98883;stroke-miterlimit:10;" d="M 13.175531 16.259438 C -0.785406 45.458656 16.198969 82.825844 47.378656 91.505531 " transform="matrix(1,0,0,-1,-0.781,94.986)"/>
<path style="fill:none;stroke-width:0.79701;stroke-linecap:butt;stroke-linejoin:miter;stroke:rgb(0%,0%,100%);stroke-opacity:1;stroke-dasharray:2.98883,2.98883;stroke-miterlimit:10;" d="M 12.265375 15.482094 C -15.12525 34.26725 15.202875 100.989906 47.366937 92.70475 " transform="matrix(1,0,0,-1,-0.781,94.986)"/>
<path style="fill:none;stroke-width:0.79701;stroke-linecap:butt;stroke-linejoin:miter;stroke:rgb(0%,0%,100%);stroke-opacity:1;stroke-dasharray:2.98883,2.98883;stroke-miterlimit:10;" d="M 28.87475 44.771156 C 33.277094 63.5485 37.781 74.052406 48.339594 90.193031 " transform="matrix(1,0,0,-1,-0.781,94.986)"/>
<path style="fill:none;stroke-width:0.79701;stroke-linecap:butt;stroke-linejoin:miter;stroke:rgb(100%,0%,0%);stroke-opacity:1;stroke-miterlimit:10;" d="M 28.073969 44.818031 C 25.761469 64.181313 32.140375 79.060219 47.753656 90.739906 " transform="matrix(1,0,0,-1,-0.781,94.986)"/>
<path style="fill:none;stroke-width:0.79701;stroke-linecap:butt;stroke-linejoin:miter;stroke:rgb(0%,0%,100%);stroke-opacity:1;stroke-dasharray:2.98883,2.98883;stroke-miterlimit:10;" d="M 86.038812 16.259438 C 99.99975 45.458656 83.015375 82.825844 51.835687 91.505531 " transform="matrix(1,0,0,-1,-0.781,94.986)"/>
<path style="fill:none;stroke-width:0.79701;stroke-linecap:butt;stroke-linejoin:miter;stroke:rgb(0%,0%,100%);stroke-opacity:1;stroke-dasharray:2.98883,2.98883;stroke-miterlimit:10;" d="M 86.948969 15.482094 C 114.339594 34.26725 84.011469 100.989906 51.847406 92.70475 " transform="matrix(1,0,0,-1,-0.781,94.986)"/>
<path style="fill:none;stroke-width:0.79701;stroke-linecap:butt;stroke-linejoin:miter;stroke:rgb(0%,0%,100%);stroke-opacity:1;stroke-dasharray:2.98883,2.98883;stroke-miterlimit:10;" d="M 70.339594 44.771156 C 65.933344 63.5485 61.433344 74.052406 50.87475 90.193031 " transform="matrix(1,0,0,-1,-0.781,94.986)"/>
<path style="fill:none;stroke-width:0.79701;stroke-linecap:butt;stroke-linejoin:miter;stroke:rgb(0%,0%,100%);stroke-opacity:1;stroke-dasharray:2.98883,2.98883;stroke-miterlimit:10;" d="M 71.140375 44.818031 C 73.448969 64.181313 67.073969 79.060219 51.456781 90.739906 " transform="matrix(1,0,0,-1,-0.781,94.986)"/>
<path style="fill:none;stroke-width:0.79701;stroke-linecap:butt;stroke-linejoin:miter;stroke:rgb(0%,0%,100%);stroke-opacity:1;stroke-dasharray:2.98883,2.98883;stroke-miterlimit:10;" d="M 50.398187 16.345375 C 60.214594 43.321938 60.214594 62.982094 50.398187 89.95475 " transform="matrix(1,0,0,-1,-0.781,94.986)"/>
<path style="fill:none;stroke-width:0.79701;stroke-linecap:butt;stroke-linejoin:miter;stroke:rgb(0%,0%,100%);stroke-opacity:1;stroke-dasharray:2.98883,2.98883;stroke-miterlimit:10;" d="M 16.488031 14.1735 L 47.292719 14.1735 " transform="matrix(1,0,0,-1,-0.781,94.986)"/>
<path style="fill:none;stroke-width:0.79701;stroke-linecap:butt;stroke-linejoin:miter;stroke:rgb(100%,0%,0%);stroke-opacity:1;stroke-miterlimit:10;" d="M 48.2185 16.021156 L 29.734125 40.669594 " transform="matrix(1,0,0,-1,-0.781,94.986)"/>
<path style="fill:none;stroke-width:0.79701;stroke-linecap:butt;stroke-linejoin:miter;stroke:rgb(100%,0%,0%);stroke-opacity:1;stroke-miterlimit:10;" d="M 50.995844 16.021156 L 69.480219 40.669594 " transform="matrix(1,0,0,-1,-0.781,94.986)"/>
<path style="fill:none;stroke-width:0.79701;stroke-linecap:butt;stroke-linejoin:miter;stroke:rgb(100%,0%,0%);stroke-opacity:1;stroke-miterlimit:10;" d="M 51.917719 14.1735 L 82.726312 14.1735 " transform="matrix(1,0,0,-1,-0.781,94.986)"/>
<path style="fill:none;stroke-width:0.79701;stroke-linecap:butt;stroke-linejoin:miter;stroke:rgb(100%,0%,0%);stroke-opacity:1;stroke-miterlimit:10;" d="M 68.554437 42.521156 L 30.659906 42.521156 " transform="matrix(1,0,0,-1,-0.781,94.986)"/>
<path style="fill:none;stroke-width:0.79701;stroke-linecap:butt;stroke-linejoin:miter;stroke:rgb(100%,0%,0%);stroke-opacity:1;stroke-miterlimit:10;" d="M 84.007562 16.239906 L 71.902094 40.450844 " transform="matrix(1,0,0,-1,-0.781,94.986)"/>
</g>
</svg>
