<?xml version="1.0" encoding="UTF-8"?>
<svg xmlns="http://www.w3.org/2000/svg" xmlns:xlink="http://www.w3.org/1999/xlink" width="45pt" height="45pt" viewBox="0 0 45 45" version="1.1">
<g id="surface1">
<path style=" stroke:none;fill-rule:nonzero;fill:rgb(0%,0%,0%);fill-opacity:0.8;" d="M 44.605469 2.710938 C 44.605469 1.546875 43.660156 0.597656 42.492188 0.597656 C 41.328125 0.597656 40.378906 1.546875 40.378906 2.710938 C 40.378906 3.878906 41.328125 4.824219 42.492188 4.824219 C 43.660156 4.824219 44.605469 3.878906 44.605469 2.710938 Z M 44.605469 2.710938 "/>
<path style=" stroke:none;fill-rule:nonzero;fill:rgb(0%,0%,0%);fill-opacity:0.8;" d="M 4.921875 42.398438 C 4.921875 41.230469 3.976563 40.285156 2.808594 40.285156 C 1.640625 40.285156 0.695313 41.230469 0.695313 42.398438 C 0.695313 43.566406 1.640625 44.511719 2.808594 44.511719 C 3.976563 44.511719 4.921875 43.566406 4.921875 42.398438 Z M 4.921875 42.398438 "/>
<path style=" stroke:none;fill-rule:nonzero;fill:rgb(0%,0%,0%);fill-opacity:0.8;" d="M 24.765625 2.710938 C 24.765625 1.546875 23.816406 0.597656 22.652344 0.597656 C 21.484375 0.597656 20.539063 1.546875 20.539063 2.710938 C 20.539063 3.878906 21.484375 4.824219 22.652344 4.824219 C 23.816406 4.824219 24.765625 3.878906 24.765625 2.710938 Z M 24.765625 2.710938 "/>
<path style=" stroke:none;fill-rule:nonzero;fill:rgb(0%,0%,0%);fill-opacity:0.8;" d="M 24.765625 42.398438 C 24.765625 41.230469 23.816406 40.285156 22.652344 40.285156 C 21.484375 40.285156 20.539063 41.230469 20.539063 42.398438 C 20.539063 43.566406 21.484375 44.511719 22.652344 44.511719 C 23.816406 44.511719 24.765625 43.566406 24.765625 42.398438 Z M 24.765625 42.398438 "/>
<path style=" stroke:none;fill-rule:nonzero;fill:rgb(0%,0%,0%);fill-opacity:0.8;" d="M 4.921875 2.710938 C 4.921875 1.546875 3.976563 0.597656 2.808594 0.597656 C 1.640625 0.597656 0.695313 1.546875 0.695313 2.710938 C 0.695313 3.878906 1.640625 4.824219 2.808594 4.824219 C 3.976563 4.824219 4.921875 3.878906 4.921875 2.710938 Z M 4.921875 2.710938 "/>
<path style=" stroke:none;fill-rule:nonzero;fill:rgb(0%,0%,0%);fill-opacity:0.8;" d="M 44.605469 42.398438 C 44.605469 41.230469 43.660156 40.285156 42.492188 40.285156 C 41.328125 40.285156 40.378906 41.230469 40.378906 42.398438 C 40.378906 43.566406 41.328125 44.511719 42.492188 44.511719 C 43.660156 44.511719 44.605469 43.566406 44.605469 42.398438 Z M 44.605469 42.398438 "/>
<path style="fill:none;stroke-width:0.79701;stroke-linecap:butt;stroke-linejoin:miter;stroke:rgb(0%,0%,0%);stroke-opacity:1;stroke-miterlimit:10;" d="M 18.208375 38.050344 L -18.209594 1.636281 M -18.80725 2.069875 L -1.033812 37.61675 M 0.00134375 37.374562 L 0.00134375 2.312062 M -1.033812 2.069875 L -18.80725 37.61675 M -18.209594 38.050344 L 18.208375 1.636281 M 19.841188 2.312062 L 19.841188 37.374562 " transform="matrix(1,0,0,-1,22.651,42.398)"/>
</g>
</svg>
